<svg xmlns="http://www.w3.org/2000/svg" xmlns:xlink="http://www.w3.org/1999/xlink" width="286" zoomAndPan="magnify" viewBox="0 0 214.5 183.749994" height="245" preserveAspectRatio="xMidYMid meet" version="1.0"><defs><clipPath id="ea1c54a0ef"><path d="M 59 0.179688 L 114 0.179688 L 114 47 L 59 47 Z M 59 0.179688 " clip-rule="nonzero"/></clipPath></defs><g clip-path="url(#ea1c54a0ef)"><path fill="#ffffff" d="M 59.347656 0.632812 C 59.347656 0.632812 59.644531 0.601562 60.199219 0.542969 C 60.761719 0.488281 61.578125 0.382812 62.628906 0.300781 C 63.152344 0.253906 63.738281 0.230469 64.375 0.1875 C 65.007812 0.1875 65.703125 0.15625 66.441406 0.195312 C 67.929688 0.210938 69.601562 0.417969 71.40625 0.769531 C 73.222656 1.082031 75.113281 1.710938 77.101562 2.398438 C 79.0625 3.136719 81.085938 4.039062 83.101562 5.097656 C 83.605469 5.363281 84.117188 5.625 84.628906 5.894531 C 85.136719 6.171875 85.632812 6.46875 86.136719 6.765625 C 86.640625 7.066406 87.144531 7.367188 87.652344 7.667969 C 88.148438 7.984375 88.648438 8.304688 89.152344 8.625 C 89.660156 8.953125 90.171875 9.28125 90.683594 9.609375 C 91.171875 9.953125 91.652344 10.277344 92.167969 10.683594 C 93.175781 11.472656 94.078125 12.292969 94.960938 13.164062 C 98.484375 16.617188 101.347656 20.558594 103.816406 24.351562 C 105.039062 26.261719 106.132812 28.152344 107.136719 29.964844 C 108.140625 31.773438 108.996094 33.535156 109.773438 35.164062 C 110.550781 36.792969 111.183594 38.324219 111.730469 39.683594 C 112.277344 41.039062 112.6875 42.25 113.027344 43.246094 C 113.355469 44.242188 113.574219 45.042969 113.722656 45.582031 C 113.859375 46.125 113.933594 46.417969 113.933594 46.417969 C 113.933594 46.417969 113.808594 46.144531 113.585938 45.628906 C 113.363281 45.117188 113.003906 44.375 112.550781 43.4375 C 112.097656 42.5 111.503906 41.378906 110.832031 40.101562 C 110.15625 38.816406 109.332031 37.402344 108.445312 35.863281 C 107.554688 34.320312 106.53125 32.6875 105.441406 30.96875 C 104.351562 29.25 103.144531 27.472656 101.863281 25.671875 C 100.589844 23.863281 99.214844 22.035156 97.742188 20.261719 C 96.273438 18.484375 94.734375 16.71875 93.058594 15.128906 C 92.234375 14.324219 91.347656 13.558594 90.484375 12.882812 C 90.074219 12.546875 89.574219 12.195312 89.097656 11.851562 C 88.617188 11.535156 88.144531 11.21875 87.667969 10.90625 C 87.183594 10.589844 86.703125 10.265625 86.222656 9.949219 C 85.738281 9.652344 85.246094 9.351562 84.765625 9.054688 C 84.28125 8.757812 83.800781 8.460938 83.324219 8.164062 C 82.84375 7.886719 82.363281 7.605469 81.890625 7.332031 C 79.992188 6.210938 78.074219 5.300781 76.269531 4.425781 C 74.433594 3.628906 72.667969 2.921875 70.992188 2.425781 C 67.648438 1.390625 64.707031 1.074219 62.628906 0.902344 C 60.539062 0.730469 59.347656 0.632812 59.347656 0.632812 " fill-opacity="1" fill-rule="nonzero"/></g><path fill="#ffffff" d="M 42.722656 5.378906 C 42.722656 5.378906 43.097656 5.351562 43.804688 5.289062 C 44.511719 5.230469 45.546875 5.109375 46.867188 5.007812 C 48.183594 4.90625 49.796875 4.78125 51.648438 4.734375 C 53.5 4.6875 55.59375 4.671875 57.882812 4.816406 C 60.167969 4.960938 62.652344 5.199219 65.246094 5.667969 C 67.839844 6.132812 70.5625 6.75 73.304688 7.675781 C 76.046875 8.589844 78.828125 9.71875 81.53125 11.117188 C 84.230469 12.53125 86.84375 14.203125 89.316406 16.066406 C 90.515625 16.953125 91.75 17.953125 92.894531 18.941406 C 94.0625 19.929688 95.183594 20.960938 96.285156 21.992188 C 98.480469 24.070312 100.492188 26.265625 102.332031 28.46875 C 104.183594 30.667969 105.832031 32.910156 107.285156 35.101562 C 108.75 37.28125 110.003906 39.429688 111.078125 41.453125 C 112.160156 43.472656 113.042969 45.371094 113.761719 47.085938 C 114.488281 48.792969 115.039062 50.3125 115.464844 51.574219 C 115.890625 52.828125 116.167969 53.835938 116.363281 54.515625 C 116.542969 55.207031 116.640625 55.574219 116.640625 55.574219 C 116.640625 55.574219 116.484375 55.226562 116.203125 54.570312 C 115.921875 53.921875 115.5 52.976562 114.933594 51.785156 C 113.800781 49.402344 112.066406 46.066406 109.667969 42.269531 C 109.066406 41.324219 108.421875 40.351562 107.730469 39.359375 C 107.050781 38.359375 106.332031 37.339844 105.5625 36.316406 C 104.785156 35.289062 103.984375 34.25 103.121094 33.21875 C 102.28125 32.171875 101.386719 31.128906 100.460938 30.085938 C 98.601562 28.007812 96.570312 25.960938 94.441406 23.953125 C 93.363281 22.960938 92.265625 21.980469 91.125 21.035156 C 89.984375 20.074219 88.855469 19.1875 87.644531 18.253906 C 85.308594 16.457031 82.839844 14.835938 80.28125 13.460938 C 77.738281 12.078125 75.125 10.894531 72.515625 9.945312 C 69.910156 8.996094 67.332031 8.210938 64.839844 7.648438 C 62.347656 7.085938 59.960938 6.648438 57.734375 6.359375 C 53.285156 5.777344 49.523438 5.625 46.878906 5.542969 C 45.558594 5.496094 44.515625 5.460938 43.808594 5.4375 C 43.097656 5.398438 42.722656 5.378906 42.722656 5.378906 " fill-opacity="1" fill-rule="nonzero"/><path fill="#ffffff" d="M 42.722656 28.351562 C 42.722656 28.351562 42.804688 28.292969 42.964844 28.1875 C 43.121094 28.074219 43.363281 27.914062 43.691406 27.734375 C 44.351562 27.363281 45.34375 26.863281 46.683594 26.414062 C 49.347656 25.488281 53.339844 24.648438 58.199219 24.5 C 60.625 24.417969 63.265625 24.511719 66.035156 24.859375 C 68.804688 25.199219 71.71875 25.738281 74.644531 26.628906 C 77.570312 27.507812 80.542969 28.628906 83.410156 30.101562 C 86.269531 31.574219 89.054688 33.367188 91.617188 35.347656 C 94.203125 37.332031 96.601562 39.523438 98.855469 41.78125 C 101.117188 44.035156 103.160156 46.421875 105.03125 48.800781 C 106.910156 51.175781 108.585938 53.582031 110.0625 55.921875 C 111.558594 58.257812 112.847656 60.535156 113.953125 62.675781 C 116.191406 66.953125 117.667969 70.699219 118.585938 73.347656 C 119.046875 74.671875 119.351562 75.730469 119.5625 76.449219 C 119.753906 77.171875 119.859375 77.558594 119.859375 77.558594 C 119.859375 77.558594 119.703125 77.191406 119.410156 76.503906 C 119.113281 75.816406 118.660156 74.820312 118.070312 73.558594 C 116.863281 71.046875 115.035156 67.519531 112.550781 63.472656 C 111.300781 61.453125 109.886719 59.304688 108.328125 57.089844 C 106.757812 54.878906 105 52.621094 103.121094 50.351562 C 101.230469 48.085938 99.152344 45.859375 96.957031 43.6875 C 94.765625 41.511719 92.402344 39.445312 89.933594 37.535156 C 87.46875 35.59375 84.890625 33.894531 82.179688 32.464844 C 79.476562 31.035156 76.699219 29.847656 73.921875 28.929688 C 71.148438 28.019531 68.394531 27.320312 65.742188 26.875 C 63.089844 26.429688 60.546875 26.148438 58.191406 26.0625 C 53.476562 25.882812 49.527344 26.3125 46.832031 26.929688 C 45.484375 27.242188 44.445312 27.578125 43.761719 27.863281 C 43.414062 28 43.15625 28.128906 42.984375 28.21875 C 42.808594 28.304688 42.722656 28.351562 42.722656 28.351562 " fill-opacity="1" fill-rule="nonzero"/><path fill="#ffffff" d="M 4.378906 82.625 C 4.378906 82.625 4.230469 81.003906 4.164062 78.140625 C 4.113281 75.277344 4.183594 71.183594 4.671875 66.285156 C 4.917969 63.839844 5.28125 61.195312 5.769531 58.414062 C 6.25 55.628906 6.921875 52.71875 7.734375 49.738281 C 8.542969 46.757812 9.542969 43.714844 10.757812 40.695312 C 11.964844 37.671875 13.351562 34.65625 14.976562 31.761719 C 16.597656 28.867188 18.421875 26.082031 20.414062 23.480469 C 20.667969 23.140625 20.878906 22.839844 21.171875 22.480469 L 21.933594 21.558594 C 22.46875 20.949219 23.050781 20.292969 23.628906 19.738281 C 24.785156 18.574219 26.015625 17.523438 27.289062 16.570312 C 28.550781 15.609375 29.859375 14.753906 31.199219 14.03125 C 32.53125 13.296875 33.871094 12.644531 35.207031 12.105469 C 37.875 10.992188 40.511719 10.300781 42.949219 9.789062 C 45.394531 9.300781 47.660156 9.0625 49.660156 8.917969 C 51.671875 8.804688 53.414062 8.773438 54.847656 8.820312 C 56.28125 8.851562 57.40625 8.917969 58.171875 8.984375 C 58.9375 9.042969 59.347656 9.074219 59.347656 9.074219 C 59.347656 9.074219 57.710938 9.210938 54.882812 9.519531 C 53.46875 9.695312 51.757812 9.894531 49.816406 10.242188 C 47.878906 10.574219 45.707031 11.011719 43.398438 11.671875 C 41.082031 12.292969 38.640625 13.179688 36.171875 14.3125 C 33.699219 15.4375 31.242188 16.914062 28.917969 18.707031 C 27.753906 19.601562 26.632812 20.589844 25.582031 21.671875 C 25.03125 22.207031 24.582031 22.757812 24.058594 23.328125 L 23.289062 24.242188 C 23.070312 24.496094 22.816406 24.847656 22.582031 25.144531 C 20.65625 27.625 18.878906 30.292969 17.292969 33.070312 C 15.695312 35.84375 14.257812 38.714844 13.023438 41.628906 C 11.789062 44.539062 10.722656 47.476562 9.800781 50.351562 C 8.882812 53.230469 8.15625 56.070312 7.511719 58.769531 C 6.878906 61.476562 6.394531 64.066406 6 66.460938 C 5.601562 68.859375 5.304688 71.074219 5.089844 73.042969 C 4.863281 75.007812 4.710938 76.734375 4.613281 78.152344 C 4.398438 80.992188 4.378906 82.625 4.378906 82.625 " fill-opacity="1" fill-rule="nonzero"/><path fill="#ffffff" d="M 4.378906 95.4375 C 4.378906 95.4375 4.339844 94.976562 4.273438 94.121094 C 4.203125 93.269531 4.097656 92.011719 4.019531 90.40625 C 3.859375 87.203125 3.769531 82.597656 4.214844 77.085938 C 4.449219 74.328125 4.804688 71.347656 5.375 68.222656 C 5.957031 65.09375 6.738281 61.824219 7.785156 58.5 C 8.84375 55.179688 10.191406 51.824219 11.847656 48.539062 C 13.492188 45.25 15.527344 42.082031 17.851562 39.140625 C 19.023438 37.667969 20.261719 36.261719 21.566406 34.90625 C 22.8125 33.609375 24.175781 32.3125 25.546875 31.09375 C 28.292969 28.664062 31.15625 26.425781 34.164062 24.597656 C 37.164062 22.773438 40.253906 21.28125 43.332031 20.273438 C 46.414062 19.277344 49.433594 18.671875 52.246094 18.523438 C 55.054688 18.339844 57.636719 18.523438 59.871094 18.871094 C 62.109375 19.222656 64.019531 19.710938 65.558594 20.1875 C 67.101562 20.652344 68.285156 21.097656 69.085938 21.402344 C 69.890625 21.714844 70.3125 21.882812 70.3125 21.882812 C 70.3125 21.882812 69.871094 21.773438 69.039062 21.566406 C 68.199219 21.371094 66.976562 21.089844 65.414062 20.785156 C 63.84375 20.496094 61.933594 20.195312 59.742188 20.042969 C 57.550781 19.921875 55.066406 19.898438 52.414062 20.261719 C 51.085938 20.425781 49.71875 20.710938 48.320312 21.039062 C 46.925781 21.386719 45.507812 21.835938 44.078125 22.378906 C 41.234375 23.492188 38.335938 24.9375 35.539062 26.777344 C 32.753906 28.625 29.988281 30.738281 27.378906 33.125 C 26.066406 34.308594 24.820312 35.539062 23.523438 36.847656 C 22.285156 38.109375 21.09375 39.441406 19.972656 40.824219 C 17.734375 43.601562 15.796875 46.621094 14.125 49.730469 C 12.457031 52.832031 11.09375 56.054688 9.96875 59.234375 C 8.828125 62.414062 7.941406 65.574219 7.253906 68.609375 C 6.550781 71.640625 6.03125 74.546875 5.65625 77.246094 C 4.886719 82.648438 4.632812 87.210938 4.511719 90.402344 C 4.453125 92.003906 4.417969 93.261719 4.402344 94.117188 C 4.386719 94.976562 4.378906 95.4375 4.378906 95.4375 " fill-opacity="1" fill-rule="nonzero"/><path fill="#ffffff" d="M 30.476562 23.507812 C 30.476562 23.507812 30.792969 23.195312 31.417969 22.640625 C 32.046875 22.09375 33.003906 21.304688 34.3125 20.445312 C 36.917969 18.710938 40.972656 16.589844 46.246094 15.261719 C 47.558594 14.910156 48.949219 14.636719 50.394531 14.382812 C 51.84375 14.164062 53.347656 13.976562 54.90625 13.894531 C 58.019531 13.6875 61.332031 13.789062 64.710938 14.265625 C 68.09375 14.726562 71.542969 15.539062 74.925781 16.714844 C 76.621094 17.292969 78.289062 17.980469 79.949219 18.707031 C 80.785156 19.085938 81.558594 19.460938 82.433594 19.882812 C 83.222656 20.3125 83.992188 20.675781 84.800781 21.171875 C 87.992188 23.054688 90.882812 25.242188 93.5625 27.609375 C 96.253906 29.957031 98.65625 32.515625 100.863281 35.070312 C 103.074219 37.621094 105.035156 40.230469 106.800781 42.761719 C 108.574219 45.285156 110.109375 47.761719 111.453125 50.089844 C 114.148438 54.742188 116.015625 58.816406 117.15625 61.726562 C 117.734375 63.179688 118.113281 64.351562 118.363281 65.144531 C 118.597656 65.949219 118.722656 66.378906 118.722656 66.378906 C 118.722656 66.378906 118.550781 65.96875 118.222656 65.203125 C 117.890625 64.433594 117.355469 63.335938 116.65625 61.953125 C 115.238281 59.195312 113.039062 55.34375 110.105469 50.929688 C 108.628906 48.726562 106.96875 46.386719 105.128906 43.976562 C 103.285156 41.578125 101.242188 39.128906 99.035156 36.6875 C 96.832031 34.242188 94.390625 31.878906 91.804688 29.625 C 89.222656 27.378906 86.390625 25.292969 83.4375 23.585938 C 82.738281 23.140625 81.902344 22.730469 81.136719 22.304688 C 80.414062 21.953125 79.59375 21.546875 78.820312 21.183594 C 77.242188 20.472656 75.652344 19.800781 74.035156 19.238281 C 70.816406 18.105469 67.566406 17.183594 64.347656 16.671875 C 61.132812 16.15625 57.980469 15.890625 54.988281 15.957031 C 52 16.011719 49.171875 16.3125 46.59375 16.804688 C 44.023438 17.308594 41.691406 17.953125 39.679688 18.683594 C 37.664062 19.417969 35.953125 20.1875 34.59375 20.914062 C 33.234375 21.644531 32.191406 22.28125 31.515625 22.757812 C 30.828125 23.234375 30.476562 23.507812 30.476562 23.507812 " fill-opacity="1" fill-rule="nonzero"/><path fill="#ffffff" d="M 119.859375 93.691406 C 119.859375 93.691406 119.601562 93.011719 119.078125 91.757812 C 118.558594 90.5 117.742188 88.675781 116.683594 86.371094 C 114.558594 81.765625 111.234375 75.304688 106.515625 68.039062 C 104.148438 64.414062 101.398438 60.617188 98.210938 56.84375 C 95.027344 53.070312 91.347656 49.367188 87.148438 46.070312 C 82.949219 42.777344 78.179688 39.9375 72.960938 38.050781 C 67.71875 36.210938 62.105469 35.417969 56.425781 35.828125 C 54.945312 35.832031 53.609375 36.09375 52.230469 36.257812 C 50.851562 36.378906 49.492188 36.792969 48.121094 37.085938 L 47.101562 37.324219 L 46.109375 37.65625 L 44.125 38.316406 C 43.453125 38.507812 42.835938 38.839844 42.195312 39.109375 C 41.5625 39.386719 40.929688 39.664062 40.296875 39.945312 C 35.339844 42.410156 30.976562 45.847656 27.367188 49.746094 C 23.75 53.648438 20.796875 57.945312 18.394531 62.242188 C 15.996094 66.550781 14.105469 70.839844 12.574219 74.882812 C 9.546875 82.992188 7.832031 90.058594 6.847656 95.027344 C 6.363281 97.519531 6.011719 99.488281 5.8125 100.832031 C 5.609375 102.179688 5.53125 102.902344 5.53125 102.902344 C 5.53125 102.902344 5.558594 102.175781 5.664062 100.816406 C 5.78125 99.457031 5.945312 97.460938 6.316406 94.941406 C 6.679688 92.421875 7.191406 89.363281 7.941406 85.886719 C 8.6875 82.414062 9.679688 78.511719 11.074219 74.351562 C 12.460938 70.1875 14.222656 65.742188 16.570312 61.261719 C 18.914062 56.78125 21.828125 52.238281 25.5625 48.097656 C 29.289062 43.972656 33.804688 40.183594 39.101562 37.550781 C 39.773438 37.246094 40.449219 36.945312 41.125 36.640625 C 41.808594 36.351562 42.46875 36 43.179688 35.789062 L 45.292969 35.070312 L 46.351562 34.707031 L 47.441406 34.445312 C 48.902344 34.125 50.328125 33.683594 51.847656 33.535156 C 53.34375 33.34375 54.878906 33.0625 56.304688 33.058594 L 58.480469 32.96875 L 59.027344 32.945312 L 59.359375 32.933594 L 59.640625 32.949219 L 60.761719 33 L 63.003906 33.109375 C 63.753906 33.175781 64.492188 33.304688 65.230469 33.398438 C 68.203125 33.761719 71.078125 34.601562 73.867188 35.535156 C 79.414062 37.554688 84.355469 40.691406 88.667969 44.167969 C 92.996094 47.652344 96.652344 51.589844 99.800781 55.527344 C 102.964844 59.464844 105.605469 63.4375 107.859375 67.199219 C 110.121094 70.953125 111.960938 74.527344 113.488281 77.734375 C 115.011719 80.945312 116.234375 83.792969 117.179688 86.160156 C 118.132812 88.519531 118.777344 90.414062 119.214844 91.707031 C 119.652344 92.996094 119.859375 93.691406 119.859375 93.691406 " fill-opacity="1" fill-rule="nonzero"/><path fill="#ffffff" d="M 118.722656 98.878906 C 118.722656 98.878906 118.546875 98.855469 118.210938 98.8125 C 118.042969 98.792969 117.832031 98.761719 117.582031 98.730469 C 117.332031 98.679688 117.046875 98.628906 116.722656 98.5625 C 116.070312 98.425781 115.28125 98.210938 114.371094 97.890625 C 113.464844 97.558594 112.445312 97.09375 111.363281 96.476562 C 109.203125 95.222656 106.820312 93.277344 104.507812 90.683594 C 102.175781 88.105469 99.933594 84.875 97.726562 81.246094 C 95.5 77.625 93.339844 73.574219 91.011719 69.347656 C 88.667969 65.140625 86.210938 60.695312 83.214844 56.472656 C 81.714844 54.363281 80.058594 52.335938 78.210938 50.492188 C 76.355469 48.652344 74.296875 47 71.980469 45.808594 C 70.828125 45.210938 69.617188 44.71875 68.371094 44.359375 C 67.746094 44.167969 67.109375 44.035156 66.46875 43.90625 L 65.5 43.753906 L 64.472656 43.628906 C 61.792969 43.347656 59.042969 43.246094 56.339844 43.46875 C 53.640625 43.6875 50.96875 44.210938 48.421875 45.0625 C 45.878906 45.917969 43.457031 47.105469 41.226562 48.558594 C 36.742188 51.449219 33.085938 55.410156 30.125 59.628906 C 27.160156 63.863281 24.8125 68.347656 22.851562 72.714844 C 20.898438 77.097656 19.261719 81.34375 17.84375 85.308594 C 16.425781 89.273438 15.136719 92.925781 13.953125 96.148438 C 12.757812 99.371094 11.636719 102.164062 10.519531 104.378906 C 9.414062 106.59375 8.234375 108.199219 7.238281 109.085938 C 6.742188 109.53125 6.304688 109.800781 6 109.957031 C 5.847656 110.039062 5.730469 110.085938 5.648438 110.117188 C 5.570312 110.152344 5.53125 110.167969 5.53125 110.167969 C 5.53125 110.167969 5.570312 110.148438 5.644531 110.109375 C 5.722656 110.070312 5.839844 110.015625 5.984375 109.921875 C 6.273438 109.75 6.683594 109.457031 7.140625 108.984375 C 8.066406 108.054688 9.070312 106.394531 10.054688 104.160156 C 11.046875 101.921875 12.011719 99.101562 13.035156 95.835938 C 14.058594 92.574219 15.109375 88.847656 16.40625 84.820312 C 17.703125 80.796875 19.140625 76.425781 21.027344 71.925781 C 22.910156 67.433594 25.160156 62.753906 28.171875 58.285156 C 31.179688 53.835938 34.976562 49.5625 39.773438 46.355469 C 42.164062 44.753906 44.800781 43.457031 47.558594 42.511719 C 50.320312 41.570312 53.210938 40.988281 56.113281 40.738281 C 59.027344 40.496094 61.921875 40.558594 64.808594 40.894531 L 65.867188 41.027344 L 66.96875 41.210938 C 67.699219 41.355469 68.425781 41.515625 69.140625 41.738281 C 70.5625 42.15625 71.941406 42.726562 73.242188 43.410156 C 75.851562 44.777344 78.105469 46.625 80.089844 48.617188 C 82.0625 50.628906 83.757812 52.8125 85.273438 55.03125 C 88.3125 59.472656 90.714844 64.019531 92.917969 68.335938 C 95.128906 72.648438 97.15625 76.734375 99.175781 80.402344 C 101.207031 84.070312 103.25 87.320312 105.351562 89.972656 C 107.445312 92.632812 109.640625 94.644531 111.664062 95.988281 C 112.679688 96.660156 113.648438 97.15625 114.503906 97.5625 C 115.371094 97.941406 116.132812 98.21875 116.761719 98.402344 C 117.074219 98.492188 117.355469 98.570312 117.59375 98.640625 C 117.839844 98.691406 118.046875 98.738281 118.21875 98.769531 C 118.550781 98.84375 118.722656 98.878906 118.722656 98.878906 " fill-opacity="1" fill-rule="nonzero"/><path fill="#ffffff" d="M 22.9375 142.847656 C 22.9375 142.847656 22.863281 142.65625 22.753906 142.273438 C 22.648438 141.890625 22.535156 141.308594 22.515625 140.53125 C 22.472656 138.984375 23 136.691406 24.390625 134.148438 C 25.757812 131.597656 27.84375 128.765625 30.457031 125.722656 C 33.074219 122.6875 36.183594 119.410156 39.691406 115.960938 C 43.203125 112.535156 47.011719 108.824219 51.035156 104.894531 C 55.042969 100.96875 59.210938 96.777344 63.1875 92.179688 C 65.175781 89.890625 67.109375 87.488281 68.871094 84.941406 C 70.625 82.398438 72.21875 79.699219 73.339844 76.835938 C 74.449219 73.988281 75.09375 70.933594 74.664062 68 C 74.265625 65.070312 72.753906 62.371094 70.621094 60.175781 C 69.554688 59.078125 68.355469 58.078125 67.078125 57.179688 L 66.597656 56.847656 L 66.367188 56.6875 L 66.109375 56.523438 C 65.761719 56.296875 65.425781 56.078125 65.101562 55.882812 C 64.445312 55.476562 63.746094 55.097656 63.066406 54.730469 C 60.3125 53.292969 57.351562 52.316406 54.390625 52.230469 C 52.914062 52.195312 51.449219 52.371094 50.046875 52.769531 C 48.644531 53.171875 47.304688 53.792969 46.050781 54.5625 C 43.550781 56.125 41.394531 58.242188 39.539062 60.554688 C 37.675781 62.871094 36.089844 65.375 34.675781 67.90625 C 33.261719 70.449219 31.996094 73.011719 30.851562 75.550781 C 28.554688 80.632812 26.707031 85.605469 25.003906 90.195312 C 23.324219 94.796875 21.855469 99.050781 20.453125 102.792969 C 19.0625 106.539062 17.785156 109.785156 16.5625 112.390625 C 15.355469 115.003906 14.148438 116.953125 13.097656 118.09375 C 12.566406 118.660156 12.09375 119.023438 11.75 119.230469 C 11.398438 119.421875 11.207031 119.488281 11.207031 119.488281 C 11.207031 119.488281 11.394531 119.414062 11.726562 119.191406 C 12.050781 118.96875 12.492188 118.578125 12.96875 117.984375 C 13.929688 116.800781 14.957031 114.796875 16.035156 112.160156 C 17.105469 109.519531 18.207031 106.230469 19.394531 102.429688 C 20.574219 98.625 21.882812 94.320312 23.40625 89.644531 C 24.914062 84.964844 26.664062 79.914062 28.851562 74.683594 C 29.949219 72.066406 31.15625 69.402344 32.582031 66.765625 C 34.003906 64.125 35.609375 61.484375 37.554688 58.984375 C 39.496094 56.5 41.78125 54.105469 44.644531 52.300781 C 46.070312 51.410156 47.636719 50.675781 49.296875 50.183594 C 50.964844 49.699219 52.714844 49.480469 54.460938 49.515625 C 57.964844 49.601562 61.324219 50.722656 64.339844 52.273438 C 65.101562 52.671875 65.824219 53.082031 66.5625 53.539062 C 66.933594 53.765625 67.277344 53.992188 67.613281 54.214844 L 68.148438 54.570312 L 68.671875 54.933594 C 70.058594 55.925781 71.382812 57.035156 72.59375 58.292969 C 73.785156 59.550781 74.863281 60.96875 75.6875 62.550781 C 76.519531 64.125 77.078125 65.867188 77.320312 67.628906 C 77.816406 71.1875 77.039062 74.707031 75.765625 77.804688 C 74.488281 80.925781 72.761719 83.742188 70.902344 86.367188 C 69.035156 88.988281 67.015625 91.425781 64.949219 93.734375 C 60.808594 98.339844 56.503906 102.460938 52.390625 106.316406 C 48.277344 110.164062 44.304688 113.703125 40.722656 117.039062 C 37.140625 120.378906 33.867188 123.453125 31.164062 126.359375 C 28.453125 129.25 26.273438 131.953125 24.828125 134.398438 C 24.105469 135.617188 23.558594 136.761719 23.199219 137.800781 C 22.847656 138.84375 22.683594 139.773438 22.652344 140.535156 C 22.628906 141.292969 22.703125 141.878906 22.789062 142.265625 C 22.875 142.652344 22.9375 142.847656 22.9375 142.847656 " fill-opacity="1" fill-rule="nonzero"/><path fill="#ffffff" d="M 19.191406 137.460938 C 19.191406 137.460938 19.125 137.300781 19.042969 136.976562 C 18.957031 136.65625 18.871094 136.15625 18.886719 135.503906 C 18.90625 134.195312 19.425781 132.292969 20.601562 130.160156 C 21.757812 128.019531 23.464844 125.601562 25.589844 122.980469 C 27.71875 120.363281 30.242188 117.515625 33.105469 114.523438 C 35.964844 111.53125 39.097656 108.328125 42.433594 104.976562 C 45.765625 101.621094 49.246094 98.0625 52.734375 94.300781 C 56.199219 90.53125 59.707031 86.535156 62.585938 82.113281 C 64.011719 79.910156 65.292969 77.574219 65.9375 75.160156 C 66.25 73.957031 66.382812 72.742188 66.207031 71.621094 C 66.042969 70.5 65.578125 69.476562 64.828125 68.605469 C 64.457031 68.167969 64.007812 67.765625 63.542969 67.410156 C 62.972656 66.976562 62.496094 66.648438 61.941406 66.296875 C 60.859375 65.625 59.722656 65.054688 58.550781 64.679688 C 56.210938 63.914062 53.726562 64.003906 51.472656 64.945312 C 49.203125 65.863281 47.191406 67.476562 45.421875 69.28125 C 43.640625 71.097656 42.082031 73.132812 40.667969 75.230469 C 37.855469 79.433594 35.578125 83.839844 33.527344 88.066406 C 31.5 92.308594 29.734375 96.40625 28.105469 100.195312 C 26.5 103.992188 25.042969 107.488281 23.695312 110.566406 C 22.351562 113.644531 21.136719 116.316406 20.023438 118.46875 C 18.929688 120.625 17.886719 122.242188 17.019531 123.214844 C 16.589844 123.707031 16.199219 124.023438 15.914062 124.203125 C 15.628906 124.378906 15.460938 124.429688 15.460938 124.429688 C 15.460938 124.429688 15.621094 124.363281 15.890625 124.167969 C 16.15625 123.972656 16.515625 123.625 16.894531 123.113281 C 17.675781 122.097656 18.542969 120.414062 19.519531 118.226562 C 20.488281 116.03125 21.535156 113.308594 22.6875 110.164062 C 23.832031 107.011719 25.109375 103.449219 26.570312 99.578125 C 28.015625 95.703125 29.652344 91.523438 31.589844 87.171875 C 33.515625 82.816406 35.726562 78.28125 38.585938 73.855469 C 40.019531 71.644531 41.613281 69.460938 43.519531 67.445312 C 45.433594 65.457031 47.683594 63.597656 50.453125 62.445312 C 51.824219 61.875 53.332031 61.511719 54.867188 61.449219 C 56.394531 61.382812 57.9375 61.601562 59.378906 62.058594 C 60.824219 62.511719 62.171875 63.167969 63.417969 63.957031 C 64.019531 64.339844 64.675781 64.804688 65.195312 65.207031 C 65.820312 65.6875 66.394531 66.214844 66.917969 66.828125 C 67.96875 68.046875 68.6875 69.625 68.902344 71.226562 C 69.136719 72.835938 68.929688 74.40625 68.542969 75.847656 C 67.746094 78.742188 66.324219 81.238281 64.800781 83.5625 C 61.683594 88.1875 58.042969 92.167969 54.46875 95.933594 C 50.875 99.683594 47.25 103.128906 43.832031 106.40625 C 40.414062 109.679688 37.136719 112.71875 34.1875 115.597656 C 31.25 118.480469 28.566406 121.132812 26.335938 123.617188 C 24.097656 126.089844 22.289062 128.378906 21.046875 130.417969 C 19.796875 132.445312 19.125 134.230469 19.027344 135.511719 C 18.960938 136.148438 19.015625 136.644531 19.078125 136.96875 C 19.136719 137.292969 19.191406 137.460938 19.191406 137.460938 " fill-opacity="1" fill-rule="nonzero"/><path fill="#ffffff" d="M 55.246094 79.277344 C 55.246094 79.277344 55.464844 78.871094 55.765625 78.0625 C 55.914062 77.660156 56.078125 77.152344 56.179688 76.539062 C 56.269531 75.933594 56.320312 75.1875 56.019531 74.472656 C 55.867188 74.121094 55.605469 73.792969 55.234375 73.617188 C 54.867188 73.429688 54.410156 73.417969 53.96875 73.523438 C 53.058594 73.726562 52.242188 74.421875 51.550781 75.246094 C 50.863281 76.078125 50.273438 77.109375 50.035156 78.265625 C 49.789062 79.414062 49.988281 80.667969 50.746094 81.664062 C 51.105469 82.15625 51.613281 82.621094 52.125 82.972656 C 52.667969 83.289062 53.21875 83.34375 53.824219 83.257812 C 55.023438 83.0625 56.210938 82.203125 57.199219 81.191406 C 58.183594 80.152344 58.992188 78.863281 59.488281 77.507812 C 59.984375 76.144531 60.046875 74.683594 59.539062 73.515625 C 59.285156 72.933594 58.886719 72.402344 58.347656 71.960938 C 58.214844 71.847656 58.078125 71.738281 57.929688 71.636719 L 57.8125 71.5625 L 57.710938 71.496094 L 57.429688 71.316406 C 57.140625 71.148438 56.792969 70.96875 56.460938 70.839844 C 55.117188 70.28125 53.730469 70.316406 52.371094 70.992188 C 51.011719 71.644531 49.757812 72.820312 48.632812 74.125 C 47.507812 75.4375 46.496094 76.917969 45.550781 78.441406 C 43.65625 81.5 41.980469 84.75 40.398438 87.988281 C 38.828125 91.230469 37.328125 94.464844 35.847656 97.585938 C 34.367188 100.707031 32.953125 103.738281 31.503906 106.570312 C 30.066406 109.402344 28.652344 112.058594 27.242188 114.457031 C 25.824219 116.847656 24.433594 118.988281 23.097656 120.8125 C 21.753906 122.636719 20.46875 124.136719 19.339844 125.304688 C 18.199219 126.464844 17.222656 127.28125 16.535156 127.808594 C 15.851562 128.335938 15.460938 128.589844 15.460938 128.589844 C 15.460938 128.589844 15.824219 128.300781 16.457031 127.71875 C 17.09375 127.132812 17.984375 126.238281 19.003906 125 C 21.0625 122.546875 23.570312 118.695312 26.0625 113.804688 C 27.320312 111.367188 28.609375 108.679688 29.894531 105.800781 C 31.179688 102.917969 32.523438 99.871094 33.878906 96.699219 C 35.234375 93.523438 36.648438 90.242188 38.183594 86.933594 C 39.722656 83.628906 41.324219 80.273438 43.28125 77.042969 C 44.265625 75.4375 45.324219 73.855469 46.574219 72.371094 C 47.832031 70.910156 49.261719 69.480469 51.167969 68.527344 C 52.121094 68.058594 53.199219 67.738281 54.316406 67.691406 C 55.425781 67.648438 56.539062 67.867188 57.503906 68.277344 C 57.996094 68.480469 58.4375 68.707031 58.90625 68.992188 L 59.1875 69.167969 L 59.355469 69.28125 L 59.515625 69.394531 C 59.726562 69.542969 59.933594 69.710938 60.132812 69.882812 C 60.933594 70.570312 61.605469 71.472656 62.019531 72.480469 C 62.433594 73.484375 62.582031 74.574219 62.488281 75.582031 C 62.40625 76.59375 62.136719 77.539062 61.773438 78.402344 C 61.046875 80.136719 59.917969 81.558594 58.609375 82.691406 C 57.300781 83.808594 55.726562 84.691406 53.929688 84.757812 C 53.050781 84.792969 52.09375 84.472656 51.476562 83.925781 C 50.835938 83.425781 50.316406 82.894531 49.898438 82.246094 C 49.035156 80.976562 48.882812 79.359375 49.277344 78.082031 C 49.644531 76.78125 50.363281 75.730469 51.15625 74.890625 C 51.949219 74.0625 52.886719 73.40625 53.898438 73.203125 C 54.398438 73.109375 54.929688 73.144531 55.351562 73.378906 C 55.785156 73.605469 56.066406 74 56.21875 74.390625 C 56.507812 75.1875 56.410156 75.945312 56.296875 76.5625 C 56.167969 77.179688 55.984375 77.683594 55.820312 78.085938 C 55.480469 78.878906 55.246094 79.277344 55.246094 79.277344 " fill-opacity="1" fill-rule="nonzero"/><path fill="#ffffff" d="M 28.949219 149.746094 C 28.316406 147.84375 27.890625 145.832031 27.839844 143.789062 C 27.78125 141.753906 28.050781 139.671875 28.703125 137.714844 C 29.351562 135.75 30.28125 133.878906 31.421875 132.164062 C 32.574219 130.449219 33.886719 128.863281 35.277344 127.367188 C 36.675781 125.867188 38.167969 124.480469 39.6875 123.128906 C 41.203125 121.78125 42.757812 120.484375 44.316406 119.207031 L 49.03125 115.445312 L 51.371094 113.566406 L 53.703125 111.660156 C 55.261719 110.386719 56.820312 109.128906 58.34375 107.839844 L 60.636719 105.917969 L 62.894531 103.949219 C 64.414062 102.652344 65.878906 101.300781 67.347656 99.953125 C 68.089844 99.285156 68.800781 98.589844 69.523438 97.90625 C 70.238281 97.214844 70.972656 96.542969 71.660156 95.828125 C 72.351562 95.117188 73.0625 94.425781 73.734375 93.699219 C 74.402344 92.96875 75.085938 92.25 75.734375 91.507812 C 77.027344 90.015625 78.277344 88.5 79.429688 86.90625 C 80.605469 85.335938 81.671875 83.6875 82.730469 81.984375 C 83.792969 80.289062 84.863281 78.542969 86.078125 76.871094 L 87.402344 75.039062 L 88.167969 77.167969 L 89.070312 79.710938 C 89.410156 80.546875 89.730469 81.386719 90.078125 82.214844 C 90.460938 83.03125 90.800781 83.867188 91.210938 84.667969 C 91.617188 85.464844 92 86.277344 92.460938 87.054688 L 93.121094 88.226562 L 93.835938 89.367188 C 94.296875 90.136719 94.832031 90.859375 95.328125 91.609375 C 95.871094 92.320312 96.382812 93.0625 96.972656 93.742188 C 97.261719 94.085938 97.542969 94.4375 97.839844 94.773438 L 98.746094 95.769531 C 99.046875 96.105469 99.378906 96.410156 99.695312 96.730469 C 100.007812 97.050781 100.332031 97.359375 100.671875 97.65625 C 101.328125 98.273438 102.019531 98.847656 102.71875 99.417969 L 103.792969 100.238281 L 104.90625 101.011719 C 105.65625 101.507812 106.429688 101.980469 107.214844 102.421875 L 108.417969 103.0625 C 108.824219 103.257812 109.226562 103.464844 109.640625 103.648438 C 110.46875 104.019531 111.3125 104.371094 112.171875 104.664062 C 113.886719 105.257812 115.660156 105.753906 117.488281 105.941406 C 115.648438 105.914062 113.8125 105.597656 112.027344 105.125 C 111.132812 104.894531 110.253906 104.601562 109.382812 104.289062 C 108.511719 103.96875 107.652344 103.605469 106.8125 103.214844 C 105.972656 102.808594 105.148438 102.375 104.34375 101.910156 L 103.152344 101.183594 L 101.988281 100.40625 C 101.226562 99.859375 100.472656 99.3125 99.757812 98.710938 C 99.390625 98.417969 99.035156 98.113281 98.695312 97.792969 C 98.351562 97.476562 97.992188 97.179688 97.664062 96.847656 L 96.667969 95.855469 C 96.339844 95.523438 96.035156 95.171875 95.714844 94.828125 C 95.066406 94.148438 94.5 93.40625 93.894531 92.6875 C 93.339844 91.9375 92.742188 91.214844 92.234375 90.425781 L 91.449219 89.261719 L 90.714844 88.066406 C 90.214844 87.277344 89.785156 86.441406 89.328125 85.625 C 88.875 84.808594 88.492188 83.957031 88.070312 83.121094 C 87.675781 82.273438 87.3125 81.414062 86.933594 80.5625 L 85.921875 77.949219 L 88.011719 78.246094 C 86.902344 79.855469 85.898438 81.554688 84.867188 83.289062 C 83.839844 85.019531 82.765625 86.777344 81.566406 88.449219 C 80.390625 90.132812 79.085938 91.71875 77.765625 93.277344 C 77.09375 94.046875 76.398438 94.792969 75.714844 95.550781 C 75.027344 96.304688 74.300781 97.015625 73.597656 97.753906 C 72.902344 98.492188 72.160156 99.183594 71.433594 99.890625 C 70.699219 100.589844 69.988281 101.316406 69.226562 101.980469 C 67.722656 103.339844 66.226562 104.703125 64.683594 106.007812 L 62.382812 107.980469 L 60.042969 109.910156 C 58.488281 111.210938 56.921875 112.472656 55.332031 113.699219 L 52.960938 115.558594 L 50.550781 117.394531 L 45.75 121.027344 C 44.152344 122.234375 42.570312 123.453125 41.03125 124.710938 C 39.484375 125.960938 38 127.273438 36.574219 128.636719 C 35.148438 130.003906 33.808594 131.449219 32.628906 133.011719 C 31.464844 134.585938 30.445312 136.261719 29.714844 138.074219 C 28.96875 139.882812 28.554688 141.824219 28.433594 143.796875 C 28.328125 145.777344 28.503906 147.777344 28.949219 149.746094 " fill-opacity="1" fill-rule="nonzero"/><path fill="#ffffff" d="M 113.933594 115.65625 C 113.933594 115.65625 113.285156 115.78125 112.148438 115.953125 C 111.585938 116.070312 110.875 116.066406 110.054688 116.066406 C 109.640625 116.054688 109.183594 116.105469 108.730469 116.027344 C 108.273438 115.980469 107.792969 115.90625 107.289062 115.835938 C 106.777344 115.792969 106.269531 115.644531 105.738281 115.507812 C 105.207031 115.359375 104.640625 115.246094 104.09375 115.027344 C 103.550781 114.800781 102.988281 114.570312 102.417969 114.335938 C 101.84375 114.101562 101.320312 113.75 100.75 113.445312 C 100.472656 113.289062 100.179688 113.140625 99.902344 112.964844 C 99.640625 112.769531 99.375 112.582031 99.105469 112.386719 C 98.582031 111.992188 98 111.640625 97.519531 111.171875 C 97.019531 110.722656 96.515625 110.265625 96.007812 109.8125 C 95.550781 109.3125 95.089844 108.8125 94.632812 108.3125 C 94.15625 107.820312 93.78125 107.257812 93.363281 106.722656 C 92.957031 106.1875 92.546875 105.65625 92.207031 105.085938 C 91.851562 104.523438 91.507812 103.964844 91.171875 103.410156 C 90.855469 102.839844 90.570312 102.269531 90.285156 101.710938 C 89.683594 100.605469 89.277344 99.457031 88.832031 98.402344 C 88.421875 97.335938 88.136719 96.289062 87.835938 95.347656 C 87.5625 94.394531 87.382812 93.496094 87.207031 92.714844 C 87.007812 91.9375 86.945312 91.230469 86.855469 90.660156 C 86.699219 89.515625 86.640625 88.863281 86.640625 88.863281 C 86.640625 88.863281 86.933594 89.460938 87.386719 90.507812 C 87.621094 91.03125 87.871094 91.675781 88.214844 92.390625 C 88.542969 93.101562 88.917969 93.90625 89.324219 94.789062 C 89.777344 95.640625 90.21875 96.582031 90.738281 97.546875 C 91.289062 98.492188 91.785156 99.535156 92.4375 100.523438 C 92.75 101.03125 93.0625 101.542969 93.382812 102.058594 C 93.730469 102.554688 94.082031 103.054688 94.429688 103.570312 C 94.761719 104.09375 95.167969 104.558594 95.546875 105.050781 C 95.933594 105.535156 96.289062 106.054688 96.722656 106.496094 C 97.136719 106.957031 97.550781 107.421875 97.960938 107.882812 C 98.414062 108.296875 98.851562 108.730469 99.289062 109.152344 C 99.503906 109.371094 99.730469 109.574219 99.96875 109.753906 C 100.199219 109.941406 100.433594 110.132812 100.660156 110.320312 C 100.890625 110.511719 101.121094 110.699219 101.347656 110.886719 C 101.582031 111.058594 101.828125 111.214844 102.0625 111.378906 C 102.546875 111.691406 102.996094 112.050781 103.484375 112.320312 C 103.972656 112.589844 104.449219 112.859375 104.910156 113.113281 C 105.375 113.382812 105.867188 113.539062 106.320312 113.761719 C 106.78125 113.96875 107.226562 114.183594 107.675781 114.304688 C 108.574219 114.574219 109.398438 114.894531 110.148438 115.015625 C 110.898438 115.167969 111.5625 115.375 112.140625 115.40625 C 113.28125 115.542969 113.933594 115.65625 113.933594 115.65625 " fill-opacity="1" fill-rule="nonzero"/><path fill="#ffffff" d="M 57.582031 85.769531 C 57.582031 85.769531 57.238281 86.265625 56.5625 87.054688 C 55.890625 87.855469 54.902344 88.964844 53.617188 90.195312 C 52.34375 91.449219 50.796875 92.835938 48.945312 94.164062 C 48.003906 94.816406 47.023438 95.476562 45.773438 95.996094 C 45.453125 96.117188 45.113281 96.238281 44.703125 96.320312 C 44.304688 96.390625 43.769531 96.464844 43.085938 96.210938 C 42.992188 96.171875 42.902344 96.125 42.816406 96.078125 L 42.6875 96.003906 L 42.628906 95.960938 C 42.558594 95.902344 42.738281 96.066406 42.460938 95.832031 L 42.453125 95.820312 L 42.296875 95.667969 L 42.214844 95.589844 C 42.175781 95.539062 42.113281 95.464844 42.066406 95.398438 C 41.964844 95.261719 41.867188 95.121094 41.785156 94.972656 C 41.648438 94.710938 41.59375 94.515625 41.511719 94.285156 C 41.464844 94.078125 41.425781 93.867188 41.386719 93.667969 C 41.238281 92.105469 41.546875 90.886719 41.863281 89.691406 C 42.195312 88.507812 42.621094 87.414062 43.058594 86.371094 C 43.949219 84.300781 44.941406 82.464844 45.871094 80.945312 C 46.78125 79.410156 47.636719 78.195312 48.253906 77.359375 C 48.871094 76.519531 49.265625 76.066406 49.265625 76.066406 C 49.265625 76.066406 49.082031 76.636719 48.742188 77.617188 C 48.398438 78.59375 47.914062 79.980469 47.308594 81.625 C 46.726562 83.28125 46.019531 85.195312 45.359375 87.234375 C 45.035156 88.253906 44.722656 89.3125 44.464844 90.367188 C 44.234375 91.398438 44.03125 92.519531 44.132812 93.304688 C 44.148438 93.386719 44.164062 93.46875 44.175781 93.550781 L 44.222656 93.679688 L 44.171875 93.625 L 44.140625 93.617188 L 44.382812 93.859375 C 44.117188 93.625 44.304688 93.789062 44.242188 93.738281 L 44.230469 93.722656 L 44.199219 93.699219 L 44.125 93.671875 C 43.988281 93.613281 44.058594 93.679688 44.230469 93.636719 C 44.390625 93.617188 44.605469 93.554688 44.824219 93.484375 C 45.726562 93.15625 46.699219 92.625 47.617188 92.101562 C 48.53125 91.570312 49.417969 91.015625 50.257812 90.480469 C 51.101562 89.945312 51.894531 89.433594 52.632812 88.964844 C 54.109375 88.003906 55.34375 87.203125 56.203125 86.644531 C 57.082031 86.089844 57.582031 85.769531 57.582031 85.769531 " fill-opacity="1" fill-rule="nonzero"/><path fill="#ffffff" d="M 40.167969 94.027344 C 39.964844 95.109375 39.703125 96.171875 39.402344 97.214844 C 39.269531 97.742188 39.117188 98.257812 38.96875 98.769531 L 38.542969 100.304688 C 38.421875 100.8125 38.296875 101.316406 38.164062 101.816406 L 37.867188 103.3125 L 37.671875 104.789062 C 37.660156 105.273438 37.644531 105.75 37.625 106.230469 L 36.351562 104.882812 C 35.957031 104.890625 36.0625 104.933594 36.113281 104.871094 C 36.171875 104.828125 36.289062 104.75 36.398438 104.660156 C 36.621094 104.476562 36.867188 104.246094 37.113281 104 C 37.601562 103.519531 38.101562 102.992188 38.59375 102.457031 C 39.609375 101.390625 40.582031 100.289062 41.78125 99.222656 C 41.929688 99.085938 42.097656 98.953125 42.277344 98.816406 L 42.746094 98.488281 L 43.664062 97.84375 C 43.96875 97.632812 44.277344 97.421875 44.554688 97.203125 L 45.421875 96.558594 L 47.234375 95.230469 C 47.863281 94.808594 48.511719 94.398438 49.171875 94.027344 C 48.746094 94.667969 48.289062 95.257812 47.847656 95.863281 C 47.386719 96.460938 46.96875 97.066406 46.46875 97.660156 L 45.71875 98.546875 C 45.46875 98.851562 45.207031 99.128906 44.945312 99.386719 L 44.148438 100.175781 L 43.757812 100.558594 L 43.4375 100.910156 C 42.984375 101.417969 42.527344 101.996094 42.0625 102.5625 C 41.601562 103.140625 41.117188 103.703125 40.625 104.28125 C 40.128906 104.851562 39.621094 105.421875 39.046875 105.980469 C 38.761719 106.257812 38.460938 106.53125 38.105469 106.8125 C 37.917969 106.953125 37.738281 107.097656 37.476562 107.238281 C 37.210938 107.359375 36.964844 107.582031 36.195312 107.582031 L 34.804688 107.585938 L 34.921875 106.230469 C 34.972656 105.640625 35.011719 105.039062 35.09375 104.457031 C 35.214844 103.886719 35.335938 103.316406 35.484375 102.757812 C 35.660156 102.21875 35.839844 101.675781 36.039062 101.148438 C 36.257812 100.632812 36.484375 100.117188 36.714844 99.613281 C 36.96875 99.121094 37.226562 98.636719 37.488281 98.152344 C 37.761719 97.675781 38.039062 97.207031 38.332031 96.742188 C 38.910156 95.824219 39.511719 94.914062 40.167969 94.027344 " fill-opacity="1" fill-rule="nonzero"/><path fill="#ffffff" d="M 31.851562 152.460938 C 31.851562 152.460938 31.949219 152.023438 32.164062 151.21875 C 32.269531 150.8125 32.414062 150.316406 32.589844 149.738281 C 32.761719 149.15625 32.960938 148.488281 33.234375 147.753906 C 33.738281 146.273438 34.421875 144.5 35.324219 142.507812 C 35.804688 141.527344 36.277344 140.457031 36.859375 139.375 C 37.167969 138.839844 37.480469 138.292969 37.804688 137.726562 C 38.140625 137.179688 38.425781 136.574219 38.828125 136.027344 C 39.609375 134.925781 40.382812 133.714844 41.269531 132.5625 C 42.175781 131.410156 43.15625 130.277344 44.183594 129.125 C 46.242188 126.824219 48.492188 124.484375 50.90625 122.160156 C 53.324219 119.832031 55.84375 117.460938 58.507812 115.160156 C 61.15625 112.847656 63.898438 110.550781 66.695312 108.320312 C 69.515625 106.117188 72.382812 103.972656 75.355469 102.003906 C 76.851562 101.023438 78.335938 100.078125 80.070312 99.328125 C 80.519531 99.144531 80.96875 98.964844 81.582031 98.851562 C 81.746094 98.828125 81.917969 98.804688 82.125 98.804688 C 82.238281 98.808594 82.351562 98.820312 82.46875 98.832031 C 82.609375 98.863281 82.765625 98.902344 82.902344 98.953125 C 82.929688 98.960938 83.109375 99.046875 83.046875 99.019531 L 83.152344 99.078125 L 83.292969 99.152344 C 83.410156 99.21875 83.574219 99.335938 83.707031 99.429688 C 84.183594 99.808594 84.507812 100.144531 84.8125 100.503906 C 85.121094 100.855469 85.386719 101.210938 85.652344 101.566406 C 87.664062 104.394531 89.179688 107.171875 90.90625 109.648438 C 92.605469 112.117188 94.367188 114.339844 96.347656 115.933594 C 96.839844 116.332031 97.34375 116.6875 97.859375 116.988281 C 98.351562 117.277344 98.960938 117.566406 99.480469 117.851562 C 100.554688 118.421875 101.570312 118.960938 102.53125 119.472656 C 103.476562 120.007812 104.414062 120.359375 105.246094 120.777344 C 106.089844 121.175781 106.867188 121.539062 107.566406 121.871094 C 108.992188 122.488281 110.113281 122.972656 110.878906 123.304688 C 111.652344 123.617188 112.066406 123.78125 112.066406 123.78125 C 112.066406 123.78125 111.640625 123.660156 110.832031 123.445312 C 110.039062 123.203125 108.851562 122.867188 107.371094 122.382812 C 105.90625 121.839844 104.078125 121.265625 102.066406 120.425781 C 101.070312 119.996094 100.011719 119.539062 98.898438 119.058594 C 98.324219 118.804688 97.792969 118.59375 97.160156 118.277344 C 96.554688 117.972656 95.960938 117.609375 95.390625 117.203125 C 93.09375 115.589844 91.089844 113.339844 89.226562 110.859375 C 88.289062 109.617188 87.382812 108.3125 86.472656 106.988281 C 85.554688 105.671875 84.667969 104.292969 83.699219 103.03125 C 83.457031 102.722656 83.210938 102.417969 82.957031 102.144531 C 82.71875 101.871094 82.433594 101.613281 82.242188 101.46875 C 82.199219 101.445312 82.199219 101.429688 82.136719 101.390625 L 81.992188 101.316406 L 81.921875 101.28125 L 81.886719 101.265625 C 81.800781 101.222656 81.957031 101.296875 81.957031 101.296875 C 82.21875 101.371094 82.09375 101.332031 82.019531 101.359375 C 81.796875 101.40625 81.441406 101.539062 81.101562 101.691406 C 79.707031 102.351562 78.257812 103.289062 76.835938 104.230469 C 73.984375 106.152344 71.171875 108.296875 68.410156 110.492188 C 65.628906 112.667969 62.894531 114.914062 60.25 117.179688 C 57.613281 119.449219 55.015625 121.6875 52.574219 123.929688 C 50.144531 126.175781 47.804688 128.367188 45.691406 130.527344 C 44.628906 131.609375 43.628906 132.695312 42.691406 133.742188 C 41.753906 134.8125 40.957031 135.90625 40.132812 136.925781 C 39.34375 137.972656 38.699219 139.058594 38.011719 140.042969 C 37.359375 141.050781 36.816406 142.058594 36.265625 142.980469 C 35.238281 144.871094 34.382812 146.542969 33.746094 147.953125 C 33.40625 148.660156 33.140625 149.296875 32.898438 149.851562 C 32.65625 150.402344 32.457031 150.878906 32.308594 151.265625 C 31.996094 152.039062 31.851562 152.460938 31.851562 152.460938 " fill-opacity="1" fill-rule="nonzero"/><path fill="#ffffff" d="M 109.941406 128.589844 C 109.941406 128.589844 109.558594 128.476562 108.839844 128.273438 C 108.121094 128.058594 107.066406 127.757812 105.738281 127.324219 C 104.414062 126.886719 102.804688 126.363281 100.980469 125.683594 C 99.152344 125.007812 97.097656 124.222656 94.898438 123.230469 C 93.796875 122.734375 92.660156 122.191406 91.496094 121.570312 C 90.921875 121.238281 90.328125 120.933594 89.75 120.527344 C 89.460938 120.324219 89.164062 120.152344 88.875 119.921875 C 88.585938 119.683594 88.296875 119.445312 88.003906 119.203125 C 86.917969 118.191406 86 116.914062 85.285156 115.582031 C 84.921875 114.914062 84.597656 114.230469 84.296875 113.5625 C 83.992188 112.902344 83.695312 112.242188 83.371094 111.75 C 83.214844 111.503906 83.054688 111.320312 82.925781 111.230469 C 82.796875 111.144531 82.738281 111.128906 82.59375 111.125 C 82.449219 111.121094 82.210938 111.175781 81.953125 111.277344 L 81.851562 111.320312 L 81.800781 111.335938 C 81.824219 111.324219 81.714844 111.371094 81.84375 111.316406 L 81.8125 111.332031 L 81.558594 111.460938 L 81.050781 111.730469 L 80.027344 112.265625 C 79.683594 112.449219 79.386719 112.652344 79.066406 112.84375 C 78.429688 113.230469 77.789062 113.617188 77.148438 114.003906 C 75.851562 114.855469 74.527344 115.683594 73.222656 116.566406 C 71.929688 117.460938 70.609375 118.328125 69.320312 119.246094 C 66.71875 121.042969 64.148438 122.882812 61.65625 124.746094 C 59.207031 126.636719 56.707031 128.457031 54.589844 130.402344 C 53.429688 131.394531 52.546875 132.441406 51.585938 133.425781 C 50.699219 134.5 49.773438 135.519531 49.011719 136.621094 C 47.394531 138.757812 46.0625 140.933594 44.871094 142.96875 C 44.296875 144 43.742188 144.988281 43.257812 145.949219 C 42.746094 146.902344 42.308594 147.828125 41.894531 148.699219 C 41.082031 150.441406 40.402344 151.988281 39.878906 153.273438 C 38.835938 155.84375 38.332031 157.363281 38.332031 157.363281 C 38.332031 157.363281 38.398438 156.96875 38.5625 156.238281 C 38.726562 155.511719 38.972656 154.4375 39.359375 153.09375 C 39.742188 151.75 40.238281 150.121094 40.917969 148.289062 C 41.578125 146.453125 42.410156 144.40625 43.460938 142.230469 C 44.523438 140.066406 45.734375 137.726562 47.316406 135.433594 C 48.054688 134.246094 48.964844 133.125 49.84375 131.945312 C 50.816406 130.808594 51.835938 129.617188 52.910156 128.625 L 53.714844 127.839844 L 53.8125 127.742188 L 53.867188 127.691406 L 53.957031 127.613281 L 54.171875 127.425781 L 54.613281 127.054688 C 55.195312 126.554688 55.78125 126.050781 56.371094 125.546875 C 57.550781 124.53125 58.796875 123.59375 60.039062 122.613281 C 62.546875 120.703125 65.125 118.808594 67.742188 116.972656 C 69.050781 116.054688 70.398438 115.1875 71.71875 114.296875 C 73.046875 113.414062 74.410156 112.582031 75.738281 111.734375 C 77.136719 110.925781 78.550781 110.023438 79.925781 109.414062 L 80.441406 109.164062 L 80.703125 109.039062 L 80.734375 109.023438 C 80.882812 108.957031 80.796875 108.996094 80.84375 108.976562 L 80.929688 108.945312 L 81.097656 108.882812 C 81.550781 108.730469 82.0625 108.601562 82.675781 108.625 C 83.292969 108.636719 83.972656 108.894531 84.433594 109.277344 C 84.902344 109.648438 85.199219 110.070312 85.4375 110.453125 C 85.898438 111.230469 86.175781 111.9375 86.460938 112.617188 C 86.75 113.289062 87.015625 113.929688 87.308594 114.542969 C 87.894531 115.765625 88.582031 116.835938 89.453125 117.734375 C 89.675781 117.941406 89.898438 118.144531 90.121094 118.347656 C 90.351562 118.546875 90.625 118.730469 90.871094 118.917969 C 91.359375 119.308594 91.917969 119.628906 92.429688 119.980469 C 93.492188 120.648438 94.558594 121.25 95.597656 121.8125 C 99.777344 124.023438 103.40625 125.65625 105.9375 126.8125 C 107.207031 127.378906 108.207031 127.824219 108.886719 128.128906 C 109.574219 128.429688 109.941406 128.589844 109.941406 128.589844 " fill-opacity="1" fill-rule="nonzero"/><path fill="#ffffff" d="M 41.554688 159.261719 C 41.554688 159.261719 41.726562 159.003906 42.046875 158.527344 C 42.371094 158.054688 42.835938 157.347656 43.464844 156.476562 C 44.714844 154.726562 46.53125 152.253906 48.839844 149.382812 C 49.988281 147.945312 51.257812 146.398438 52.640625 144.804688 C 54.023438 143.203125 55.5 141.527344 57.089844 139.855469 C 58.6875 138.183594 60.335938 136.457031 62.132812 134.804688 C 63.917969 133.148438 65.785156 131.503906 67.757812 129.964844 C 69.761719 128.460938 71.859375 127.035156 74.230469 125.96875 C 75.441406 125.476562 76.699219 125.015625 78.167969 124.984375 L 78.234375 124.980469 C 78.269531 124.980469 78.203125 124.976562 78.316406 124.976562 L 78.34375 124.980469 L 78.453125 124.984375 L 78.679688 124.992188 L 79.992188 125.050781 C 80.5625 125.058594 81.203125 125.167969 81.800781 125.222656 C 84.195312 125.503906 86.378906 126.015625 88.441406 126.597656 C 90.507812 127.148438 92.40625 127.824219 94.140625 128.464844 C 95.875 129.109375 97.445312 129.757812 98.8125 130.375 C 100.1875 130.96875 101.359375 131.550781 102.324219 132.027344 C 104.25 132.988281 105.308594 133.617188 105.308594 133.617188 C 105.308594 133.617188 104.148438 133.222656 102.117188 132.539062 C 101.097656 132.199219 99.859375 131.808594 98.4375 131.371094 C 97.019531 130.925781 95.40625 130.472656 93.65625 129.976562 C 91.890625 129.515625 89.984375 129.027344 87.953125 128.609375 C 85.9375 128.175781 83.757812 127.84375 81.59375 127.65625 C 81.042969 127.625 80.535156 127.546875 79.941406 127.558594 L 79.0625 127.554688 L 78.265625 127.554688 C 78.363281 127.554688 78.277344 127.554688 78.296875 127.558594 L 78.25 127.566406 L 77.550781 127.660156 C 77.3125 127.703125 77.0625 127.792969 76.8125 127.855469 C 76.574219 127.910156 76.320312 128.007812 76.066406 128.113281 C 75.816406 128.214844 75.566406 128.292969 75.316406 128.417969 C 73.292969 129.355469 71.328125 130.714844 69.445312 132.164062 C 67.539062 133.605469 65.703125 135.175781 63.941406 136.773438 C 62.183594 138.378906 60.449219 139.96875 58.828125 141.566406 C 57.207031 143.167969 55.625 144.707031 54.15625 146.203125 C 52.695312 147.703125 51.308594 149.121094 50.03125 150.429688 C 44.945312 155.726562 41.554688 159.261719 41.554688 159.261719 " fill-opacity="1" fill-rule="nonzero"/><path fill="#ffffff" d="M 45.484375 161.160156 C 45.484375 161.160156 45.644531 160.9375 45.949219 160.515625 C 46.257812 160.101562 46.695312 159.480469 47.289062 158.714844 C 48.464844 157.183594 50.183594 155.015625 52.359375 152.519531 C 53.445312 151.269531 54.636719 149.921875 55.941406 148.542969 C 57.246094 147.160156 58.625 145.703125 60.132812 144.269531 C 61.632812 142.832031 63.1875 141.339844 64.863281 139.925781 C 66.542969 138.511719 68.292969 137.121094 70.148438 135.828125 C 72.035156 134.574219 73.980469 133.371094 76.230469 132.574219 C 76.511719 132.480469 76.785156 132.375 77.078125 132.292969 L 77.980469 132.085938 C 78.269531 132.011719 78.613281 132.015625 78.929688 131.980469 C 79.109375 131.972656 79.207031 131.953125 79.445312 131.949219 L 79.84375 131.96875 C 80.378906 131.996094 80.898438 132.007812 81.433594 132.042969 C 81.984375 132.105469 82.53125 132.160156 83.078125 132.21875 C 85.199219 132.503906 87.183594 132.921875 89.039062 133.433594 C 89.96875 133.667969 90.859375 133.945312 91.71875 134.207031 C 92.578125 134.484375 93.398438 134.757812 94.1875 135.035156 C 95.757812 135.585938 97.171875 136.144531 98.414062 136.675781 C 99.664062 137.1875 100.730469 137.6875 101.605469 138.097656 C 103.355469 138.925781 104.316406 139.464844 104.316406 139.464844 C 104.316406 139.464844 103.261719 139.15625 101.410156 138.613281 C 100.484375 138.351562 99.359375 138.039062 98.070312 137.679688 C 96.785156 137.324219 95.320312 136.960938 93.730469 136.5625 C 92.136719 136.183594 90.410156 135.800781 88.578125 135.453125 C 86.753906 135.089844 84.804688 134.84375 82.835938 134.648438 C 82.351562 134.617188 81.863281 134.585938 81.371094 134.554688 C 80.863281 134.539062 80.324219 134.550781 79.796875 134.546875 L 79.398438 134.550781 L 79.125 134.589844 C 78.910156 134.628906 78.707031 134.617188 78.480469 134.691406 L 77.8125 134.855469 C 77.585938 134.917969 77.359375 135.015625 77.132812 135.09375 C 75.292969 135.765625 73.464844 136.910156 71.71875 138.113281 C 69.945312 139.308594 68.226562 140.628906 66.582031 141.980469 C 64.941406 143.347656 63.308594 144.691406 61.785156 146.058594 C 60.257812 147.417969 58.777344 148.730469 57.394531 150.007812 C 56.011719 151.289062 54.707031 152.5 53.5 153.621094 C 48.691406 158.144531 45.484375 161.160156 45.484375 161.160156 " fill-opacity="1" fill-rule="nonzero"/><path fill="#ffffff" d="M 49.171875 162.546875 C 49.171875 162.546875 49.832031 161.890625 51.035156 160.800781 C 52.238281 159.710938 53.976562 158.171875 56.132812 156.421875 C 57.207031 155.539062 58.382812 154.589844 59.652344 153.625 C 60.910156 152.652344 62.25 151.636719 63.671875 150.632812 C 65.09375 149.625 66.550781 148.566406 68.089844 147.582031 C 69.632812 146.585938 71.203125 145.582031 72.828125 144.640625 C 74.46875 143.722656 76.125 142.832031 77.902344 142.101562 C 78.351562 141.90625 78.792969 141.757812 79.300781 141.589844 C 79.738281 141.46875 80.15625 141.347656 80.632812 141.234375 C 81.5625 141.011719 82.445312 140.84375 83.332031 140.707031 C 85.101562 140.421875 86.8125 140.332031 88.429688 140.28125 C 90.046875 140.222656 91.566406 140.285156 92.96875 140.363281 C 95.765625 140.519531 98.074219 140.867188 99.675781 141.144531 C 101.28125 141.429688 102.179688 141.664062 102.179688 141.664062 C 102.179688 141.664062 101.253906 141.671875 99.632812 141.679688 C 98.015625 141.707031 95.710938 141.761719 92.96875 141.925781 C 91.601562 142.007812 90.121094 142.144531 88.574219 142.3125 C 87.019531 142.484375 85.40625 142.753906 83.761719 143.085938 C 82.949219 143.253906 82.109375 143.457031 81.316406 143.695312 C 80.933594 143.800781 80.496094 143.957031 80.070312 144.09375 C 79.730469 144.242188 79.316406 144.382812 78.933594 144.558594 C 77.359375 145.238281 75.769531 146.125 74.207031 147.035156 C 72.632812 147.941406 71.0625 148.878906 69.535156 149.839844 C 68.007812 150.800781 66.5 151.75 65.046875 152.664062 C 63.585938 153.589844 62.179688 154.484375 60.84375 155.328125 C 59.515625 156.191406 58.246094 156.984375 57.070312 157.71875 C 54.730469 159.203125 52.757812 160.410156 51.371094 161.246094 C 49.980469 162.085938 49.171875 162.546875 49.171875 162.546875 " fill-opacity="1" fill-rule="nonzero"/><path fill="#ffffff" d="M 59.523438 164.617188 C 59.523438 164.617188 59.953125 164.097656 60.746094 163.238281 C 61.539062 162.378906 62.691406 161.171875 64.140625 159.796875 C 65.578125 158.40625 67.3125 156.851562 69.246094 155.265625 C 71.183594 153.675781 73.304688 152.058594 75.570312 150.578125 C 76.710938 149.851562 77.875 149.140625 79.132812 148.539062 C 79.464844 148.398438 79.769531 148.242188 80.125 148.117188 L 80.382812 148.023438 L 80.449219 148 L 80.554688 147.964844 L 80.667969 147.929688 L 81.132812 147.800781 C 81.714844 147.613281 82.433594 147.472656 83.09375 147.339844 C 84.390625 147.140625 85.628906 147.015625 86.804688 147 C 87.980469 146.964844 89.078125 147.027344 90.089844 147.105469 C 91.101562 147.183594 92.019531 147.300781 92.828125 147.433594 C 93.640625 147.550781 94.335938 147.707031 94.914062 147.832031 C 96.058594 148.085938 96.695312 148.304688 96.695312 148.304688 C 96.695312 148.304688 96.027344 148.332031 94.863281 148.375 C 94.285156 148.410156 93.582031 148.445312 92.777344 148.492188 C 91.976562 148.53125 91.074219 148.617188 90.097656 148.691406 C 89.125 148.785156 88.074219 148.90625 86.980469 149.074219 C 85.882812 149.21875 84.753906 149.46875 83.613281 149.738281 C 83.066406 149.910156 82.550781 150.019531 81.921875 150.261719 L 81.472656 150.425781 L 81.359375 150.464844 L 81.328125 150.472656 L 81.363281 150.460938 L 81.351562 150.464844 L 81.304688 150.488281 L 81.113281 150.574219 C 80.859375 150.675781 80.589844 150.820312 80.324219 150.945312 C 79.257812 151.519531 78.15625 152.195312 77.078125 152.902344 C 74.90625 154.316406 72.753906 155.820312 70.726562 157.222656 C 68.699219 158.628906 66.796875 159.941406 65.136719 161.035156 C 63.488281 162.148438 62.085938 163.042969 61.09375 163.664062 C 60.109375 164.28125 59.523438 164.617188 59.523438 164.617188 " fill-opacity="1" fill-rule="nonzero"/><path fill="#ffffff" d="M 70.3125 164.617188 C 70.3125 164.617188 70.496094 164.277344 70.859375 163.714844 C 71.222656 163.15625 71.765625 162.378906 72.464844 161.488281 C 73.871094 159.71875 75.90625 157.523438 78.335938 155.648438 C 78.949219 155.1875 79.574219 154.730469 80.285156 154.332031 C 80.648438 154.128906 80.988281 153.941406 81.492188 153.761719 C 81.664062 153.710938 81.832031 153.660156 82.003906 153.609375 C 82.171875 153.554688 82.40625 153.503906 82.601562 153.460938 C 83.40625 153.289062 84.109375 153.246094 84.800781 153.242188 C 85.484375 153.234375 86.117188 153.296875 86.699219 153.371094 C 87.851562 153.539062 88.78125 153.808594 89.417969 154.035156 C 90.050781 154.257812 90.398438 154.441406 90.398438 154.441406 C 90.398438 154.441406 90.019531 154.496094 89.359375 154.59375 C 88.707031 154.695312 87.78125 154.816406 86.714844 155.011719 C 86.183594 155.109375 85.613281 155.207031 85.03125 155.351562 C 84.457031 155.480469 83.828125 155.648438 83.296875 155.847656 C 83.164062 155.90625 83.054688 155.933594 82.890625 156.003906 L 82.402344 156.21875 C 82.242188 156.308594 81.945312 156.464844 81.6875 156.644531 C 81.148438 157.003906 80.574219 157.417969 80.007812 157.851562 C 78.875 158.714844 77.722656 159.613281 76.621094 160.441406 C 75.519531 161.269531 74.46875 162.019531 73.539062 162.648438 C 72.609375 163.269531 71.8125 163.769531 71.234375 164.105469 C 70.660156 164.445312 70.3125 164.617188 70.3125 164.617188 " fill-opacity="1" fill-rule="nonzero"/><path fill="#ffffff" d="M 115.347656 109.375 C 98.859375 133.445312 65.984375 139.59375 41.910156 123.105469 C 17.84375 106.625 11.6875 73.746094 28.175781 49.667969 C 44.664062 25.601562 77.542969 19.449219 101.613281 35.9375 C 125.683594 52.425781 131.835938 85.300781 115.347656 109.375 Z M 20.144531 44.167969 C 0.617188 72.675781 7.902344 111.617188 36.40625 131.140625 C 64.917969 150.667969 103.855469 143.382812 123.378906 114.871094 C 142.90625 86.371094 135.625 47.425781 107.113281 27.902344 C 78.605469 8.378906 39.667969 15.660156 20.144531 44.167969 " fill-opacity="1" fill-rule="nonzero"/><path fill="#ffffff" d="M 142.128906 113.980469 C 142.128906 113.980469 144.875 116.777344 139.460938 124.679688 C 134.046875 132.589844 129.320312 132.679688 129.320312 132.679688 L 111.664062 120.589844 L 124.476562 101.886719 L 142.128906 113.980469 " fill-opacity="1" fill-rule="nonzero"/><path fill="#ffffff" d="M 207.089844 152.414062 C 207.089844 152.414062 213.546875 160.820312 206 171.832031 C 198.457031 182.84375 189.246094 178.464844 189.246094 178.464844 L 138.308594 144.238281 L 156.152344 118.183594 L 207.089844 152.414062 " fill-opacity="1" fill-rule="nonzero"/><path fill="#ffffff" d="M 136.863281 116.34375 L 129.628906 126.914062 L 145.691406 137.917969 L 152.933594 127.351562 L 136.863281 116.34375 " fill-opacity="1" fill-rule="nonzero"/></svg>