<svg xmlns="http://www.w3.org/2000/svg" xmlns:xlink="http://www.w3.org/1999/xlink" width="286" zoomAndPan="magnify" viewBox="0 0 214.5 183.749994" height="245" preserveAspectRatio="xMidYMid meet" version="1.0"><defs><clipPath id="ef25223677"><path d="M 59 0.179688 L 114 0.179688 L 114 47 L 59 47 Z M 59 0.179688 " clip-rule="nonzero"/></clipPath></defs><g clip-path="url(#ef25223677)"><path fill="#393536" d="M 59.3125 0.632812 C 59.3125 0.632812 59.609375 0.601562 60.164062 0.542969 C 60.726562 0.488281 61.542969 0.382812 62.589844 0.300781 C 63.113281 0.253906 63.699219 0.230469 64.335938 0.1875 C 64.96875 0.1875 65.664062 0.15625 66.402344 0.195312 C 67.886719 0.210938 69.5625 0.417969 71.367188 0.769531 C 73.179688 1.082031 75.070312 1.710938 77.054688 2.394531 C 79.015625 3.136719 81.035156 4.035156 83.050781 5.09375 C 83.554688 5.359375 84.066406 5.621094 84.578125 5.890625 C 85.085938 6.167969 85.582031 6.464844 86.085938 6.761719 C 86.589844 7.058594 87.09375 7.359375 87.601562 7.660156 C 88.097656 7.976562 88.59375 8.296875 89.097656 8.621094 C 89.605469 8.945312 90.121094 9.273438 90.628906 9.601562 C 91.117188 9.945312 91.597656 10.269531 92.113281 10.675781 C 93.121094 11.464844 94.019531 12.285156 94.902344 13.15625 C 98.425781 16.605469 101.289062 20.542969 103.753906 24.332031 C 104.972656 26.238281 106.066406 28.128906 107.074219 29.941406 C 108.074219 31.75 108.929688 33.507812 109.707031 35.136719 C 110.484375 36.765625 111.117188 38.292969 111.664062 39.652344 C 112.210938 41.007812 112.621094 42.21875 112.960938 43.210938 C 113.289062 44.210938 113.507812 45.007812 113.652344 45.546875 C 113.792969 46.089844 113.863281 46.382812 113.863281 46.382812 C 113.863281 46.382812 113.742188 46.109375 113.515625 45.59375 C 113.292969 45.085938 112.9375 44.34375 112.484375 43.40625 C 112.03125 42.464844 111.4375 41.347656 110.765625 40.070312 C 110.089844 38.785156 109.265625 37.375 108.378906 35.835938 C 107.492188 34.292969 106.464844 32.660156 105.378906 30.945312 C 104.289062 29.226562 103.085938 27.453125 101.800781 25.652344 C 100.53125 23.84375 99.15625 22.019531 97.683594 20.246094 C 96.214844 18.46875 94.675781 16.703125 93.003906 15.117188 C 92.179688 14.316406 91.292969 13.546875 90.429688 12.875 C 90.019531 12.535156 89.523438 12.1875 89.042969 11.839844 C 88.566406 11.527344 88.089844 11.210938 87.613281 10.898438 C 87.132812 10.578125 86.648438 10.257812 86.171875 9.941406 C 85.6875 9.644531 85.195312 9.34375 84.710938 9.046875 C 84.230469 8.75 83.753906 8.457031 83.273438 8.160156 C 82.792969 7.878906 82.3125 7.601562 81.839844 7.328125 C 79.945312 6.207031 78.027344 5.296875 76.226562 4.425781 C 74.386719 3.628906 72.625 2.921875 70.949219 2.421875 C 67.605469 1.390625 64.667969 1.070312 62.589844 0.902344 C 60.503906 0.730469 59.3125 0.632812 59.3125 0.632812 " fill-opacity="1" fill-rule="nonzero"/></g><path fill="#393536" d="M 42.695312 5.375 C 42.695312 5.375 43.070312 5.347656 43.777344 5.285156 C 44.484375 5.226562 45.519531 5.105469 46.839844 5.003906 C 48.15625 4.902344 49.765625 4.777344 51.617188 4.730469 C 53.46875 4.683594 55.5625 4.667969 57.847656 4.8125 C 60.132812 4.957031 62.613281 5.195312 65.207031 5.664062 C 67.796875 6.128906 70.523438 6.746094 73.261719 7.671875 C 76 8.582031 78.78125 9.710938 81.484375 11.109375 C 84.183594 12.519531 86.789062 14.195312 89.261719 16.054688 C 90.460938 16.941406 91.695312 17.941406 92.839844 18.929688 C 94.003906 19.914062 95.125 20.945312 96.226562 21.976562 C 98.421875 24.054688 100.429688 26.246094 102.273438 28.449219 C 104.121094 30.644531 105.765625 32.886719 107.21875 35.074219 C 108.6875 37.253906 109.9375 39.398438 111.007812 41.421875 C 112.089844 43.4375 112.976562 45.335938 113.691406 47.050781 C 114.417969 48.753906 114.96875 50.273438 115.394531 51.535156 C 115.820312 52.789062 116.097656 53.792969 116.292969 54.476562 C 116.472656 55.164062 116.570312 55.53125 116.570312 55.53125 C 116.570312 55.53125 116.417969 55.183594 116.136719 54.53125 C 115.855469 53.882812 115.429688 52.933594 114.863281 51.746094 C 113.730469 49.367188 112 46.03125 109.601562 42.238281 C 109.003906 41.292969 108.355469 40.320312 107.667969 39.328125 C 106.988281 38.328125 106.265625 37.3125 105.5 36.289062 C 104.722656 35.265625 103.921875 34.222656 103.058594 33.191406 C 102.21875 32.148438 101.328125 31.105469 100.402344 30.0625 C 98.542969 27.984375 96.511719 25.941406 94.382812 23.933594 C 93.304688 22.945312 92.210938 21.960938 91.070312 21.019531 C 89.929688 20.058594 88.800781 19.175781 87.59375 18.242188 C 85.257812 16.445312 82.792969 14.824219 80.234375 13.453125 C 77.691406 12.070312 75.078125 10.886719 72.472656 9.9375 C 69.867188 8.992188 67.292969 8.207031 64.800781 7.644531 C 62.308594 7.082031 59.925781 6.644531 57.703125 6.355469 C 53.253906 5.773438 49.492188 5.621094 46.851562 5.535156 C 45.53125 5.492188 44.488281 5.457031 43.78125 5.433594 C 43.074219 5.394531 42.695312 5.375 42.695312 5.375 " fill-opacity="1" fill-rule="nonzero"/><path fill="#393536" d="M 42.695312 28.328125 C 42.695312 28.328125 42.777344 28.269531 42.941406 28.164062 C 43.097656 28.054688 43.335938 27.894531 43.664062 27.710938 C 44.324219 27.34375 45.316406 26.84375 46.65625 26.394531 C 49.316406 25.46875 53.308594 24.628906 58.164062 24.480469 C 60.589844 24.402344 63.226562 24.492188 65.996094 24.839844 C 68.765625 25.179688 71.675781 25.71875 74.601562 26.609375 C 77.523438 27.484375 80.496094 28.609375 83.359375 30.078125 C 86.21875 31.546875 89 33.339844 91.5625 35.320312 C 94.148438 37.300781 96.542969 39.496094 98.796875 41.75 C 101.054688 44 103.097656 46.386719 104.96875 48.765625 C 106.84375 51.136719 108.519531 53.539062 109.996094 55.878906 C 111.488281 58.210938 112.78125 60.488281 113.886719 62.628906 C 116.121094 66.902344 117.597656 70.644531 118.515625 73.289062 C 118.976562 74.613281 119.28125 75.671875 119.492188 76.390625 C 119.683594 77.113281 119.785156 77.5 119.785156 77.5 C 119.785156 77.5 119.628906 77.132812 119.335938 76.445312 C 119.042969 75.757812 118.589844 74.761719 118 73.503906 C 116.792969 70.992188 114.964844 67.46875 112.484375 63.421875 C 111.234375 61.40625 109.820312 59.257812 108.261719 57.046875 C 106.695312 54.835938 104.9375 52.582031 103.058594 50.3125 C 101.167969 48.050781 99.089844 45.824219 96.902344 43.652344 C 94.707031 41.480469 92.347656 39.414062 89.878906 37.507812 C 87.417969 35.566406 84.839844 33.871094 82.128906 32.441406 C 79.429688 31.011719 76.652344 29.824219 73.878906 28.910156 C 71.105469 28 68.351562 27.300781 65.703125 26.851562 C 63.050781 26.410156 60.511719 26.128906 58.15625 26.039062 C 53.445312 25.863281 49.496094 26.292969 46.804688 26.910156 C 45.457031 27.222656 44.417969 27.554688 43.734375 27.84375 C 43.386719 27.980469 43.128906 28.109375 42.957031 28.195312 C 42.785156 28.285156 42.695312 28.328125 42.695312 28.328125 " fill-opacity="1" fill-rule="nonzero"/><path fill="#393536" d="M 4.375 82.5625 C 4.375 82.5625 4.230469 80.941406 4.160156 78.082031 C 4.113281 75.21875 4.183594 71.128906 4.667969 66.234375 C 4.914062 63.789062 5.277344 61.148438 5.765625 58.371094 C 6.246094 55.585938 6.917969 52.679688 7.730469 49.699219 C 8.539062 46.722656 9.539062 43.683594 10.75 40.664062 C 11.957031 37.640625 13.34375 34.628906 14.96875 31.738281 C 16.589844 28.847656 18.410156 26.0625 20.402344 23.460938 C 20.65625 23.125 20.867188 22.824219 21.160156 22.464844 L 21.917969 21.542969 C 22.453125 20.929688 23.035156 20.277344 23.617188 19.722656 C 24.769531 18.558594 26 17.511719 27.273438 16.558594 C 28.53125 15.597656 29.839844 14.742188 31.179688 14.019531 C 32.511719 13.285156 33.851562 12.636719 35.1875 12.097656 C 37.855469 10.984375 40.488281 10.292969 42.925781 9.785156 C 45.367188 9.292969 47.632812 9.054688 49.632812 8.910156 C 51.640625 8.796875 53.382812 8.769531 54.816406 8.8125 C 56.25 8.84375 57.375 8.910156 58.136719 8.976562 C 58.902344 9.035156 59.3125 9.070312 59.3125 9.070312 C 59.3125 9.070312 57.675781 9.207031 54.847656 9.511719 C 53.4375 9.6875 51.726562 9.886719 49.785156 10.234375 C 47.851562 10.566406 45.679688 11.003906 43.375 11.660156 C 41.054688 12.285156 38.617188 13.167969 36.148438 14.300781 C 33.679688 15.425781 31.222656 16.898438 28.898438 18.691406 C 27.738281 19.589844 26.617188 20.574219 25.570312 21.65625 C 25.015625 22.1875 24.566406 22.738281 24.042969 23.308594 L 23.273438 24.222656 C 23.054688 24.480469 22.800781 24.828125 22.566406 25.125 C 20.644531 27.605469 18.871094 30.273438 17.28125 33.046875 C 15.6875 35.816406 14.25 38.6875 13.019531 41.597656 C 11.78125 44.507812 10.714844 47.4375 9.796875 50.3125 C 8.875 53.191406 8.152344 56.027344 7.507812 58.726562 C 6.875 61.425781 6.390625 64.015625 5.996094 66.410156 C 5.597656 68.804688 5.300781 71.019531 5.089844 72.984375 C 4.859375 74.953125 4.710938 76.671875 4.613281 78.09375 C 4.398438 80.929688 4.375 82.5625 4.375 82.5625 " fill-opacity="1" fill-rule="nonzero"/><path fill="#393536" d="M 4.375 95.363281 C 4.375 95.363281 4.335938 94.90625 4.269531 94.050781 C 4.203125 93.195312 4.09375 91.941406 4.015625 90.335938 C 3.859375 87.136719 3.765625 82.535156 4.210938 77.027344 C 4.445312 74.273438 4.800781 71.292969 5.371094 68.171875 C 5.953125 65.046875 6.734375 61.777344 7.777344 58.457031 C 8.839844 55.140625 10.1875 51.785156 11.84375 48.503906 C 13.484375 45.21875 15.515625 42.050781 17.84375 39.109375 C 19.011719 37.640625 20.25 36.234375 21.554688 34.882812 C 22.800781 33.585938 24.160156 32.289062 25.53125 31.066406 C 28.277344 28.640625 31.136719 26.402344 34.140625 24.578125 C 37.140625 22.753906 40.230469 21.261719 43.308594 20.257812 C 46.386719 19.261719 49.402344 18.660156 52.214844 18.507812 C 55.023438 18.324219 57.601562 18.511719 59.835938 18.855469 C 62.070312 19.207031 63.980469 19.695312 65.519531 20.171875 C 67.0625 20.636719 68.246094 21.078125 69.046875 21.386719 C 69.847656 21.699219 70.273438 21.867188 70.273438 21.867188 C 70.273438 21.867188 69.828125 21.757812 68.996094 21.550781 C 68.160156 21.355469 66.933594 21.074219 65.375 20.769531 C 63.808594 20.480469 61.898438 20.179688 59.707031 20.027344 C 57.515625 19.90625 55.035156 19.882812 52.382812 20.246094 C 51.054688 20.410156 49.691406 20.695312 48.292969 21.023438 C 46.898438 21.371094 45.480469 21.820312 44.054688 22.363281 C 41.207031 23.476562 38.3125 24.917969 35.519531 26.757812 C 32.734375 28.601562 29.96875 30.714844 27.359375 33.097656 C 26.050781 34.285156 24.808594 35.515625 23.507812 36.820312 C 22.273438 38.078125 21.082031 39.410156 19.960938 40.792969 C 17.722656 43.566406 15.785156 46.585938 14.117188 49.691406 C 12.449219 52.792969 11.085938 56.011719 9.964844 59.191406 C 8.820312 62.367188 7.9375 65.523438 7.25 68.558594 C 6.546875 71.585938 6.027344 74.488281 5.652344 77.1875 C 4.882812 82.585938 4.628906 87.140625 4.507812 90.332031 C 4.449219 91.933594 4.414062 93.191406 4.398438 94.046875 C 4.382812 94.90625 4.375 95.363281 4.375 95.363281 " fill-opacity="1" fill-rule="nonzero"/><path fill="#393536" d="M 30.457031 23.492188 C 30.457031 23.492188 30.777344 23.175781 31.398438 22.625 C 32.027344 22.074219 32.984375 21.289062 34.292969 20.429688 C 36.898438 18.695312 40.949219 16.578125 46.21875 15.25 C 47.53125 14.898438 48.917969 14.625 50.363281 14.371094 C 51.8125 14.152344 53.316406 13.964844 54.871094 13.886719 C 57.984375 13.679688 61.296875 13.78125 64.671875 14.253906 C 68.050781 14.714844 71.5 15.527344 74.878906 16.703125 C 76.574219 17.277344 78.242188 17.964844 79.902344 18.691406 C 80.734375 19.070312 81.511719 19.445312 82.382812 19.867188 C 83.171875 20.296875 83.941406 20.660156 84.75 21.15625 C 87.941406 23.035156 90.828125 25.222656 93.507812 27.589844 C 96.195312 29.933594 98.597656 32.492188 100.800781 35.042969 C 103.011719 37.59375 104.972656 40.199219 106.734375 42.730469 C 108.507812 45.253906 110.042969 47.726562 111.386719 50.050781 C 114.082031 54.699219 115.945312 58.773438 117.085938 61.679688 C 117.664062 63.132812 118.042969 64.300781 118.292969 65.097656 C 118.523438 65.898438 118.652344 66.328125 118.652344 66.328125 C 118.652344 66.328125 118.480469 65.917969 118.152344 65.152344 C 117.820312 64.386719 117.285156 63.289062 116.585938 61.90625 C 115.171875 59.148438 112.96875 55.300781 110.039062 50.890625 C 108.5625 48.6875 106.902344 46.351562 105.066406 43.945312 C 103.222656 41.546875 101.179688 39.097656 98.976562 36.660156 C 96.773438 34.214844 94.335938 31.855469 91.75 29.601562 C 89.171875 27.355469 86.339844 25.273438 83.390625 23.566406 C 82.691406 23.121094 81.851562 22.714844 81.085938 22.289062 C 80.363281 21.9375 79.546875 21.527344 78.773438 21.167969 C 77.195312 20.457031 75.605469 19.789062 73.992188 19.222656 C 70.773438 18.09375 67.527344 17.167969 64.308594 16.660156 C 61.097656 16.144531 57.945312 15.878906 54.957031 15.945312 C 51.96875 16 49.140625 16.300781 46.566406 16.792969 C 43.996094 17.292969 41.667969 17.941406 39.65625 18.671875 C 37.644531 19.40625 35.933594 20.171875 34.574219 20.898438 C 33.214844 21.628906 32.171875 22.265625 31.496094 22.742188 C 30.808594 23.21875 30.457031 23.492188 30.457031 23.492188 " fill-opacity="1" fill-rule="nonzero"/><path fill="#393536" d="M 119.785156 93.621094 C 119.785156 93.621094 119.53125 92.941406 119.003906 91.6875 C 118.484375 90.429688 117.671875 88.609375 116.613281 86.304688 C 114.492188 81.703125 111.167969 75.246094 106.449219 67.988281 C 104.085938 64.367188 101.335938 60.570312 98.152344 56.796875 C 94.972656 53.027344 91.292969 49.328125 87.097656 46.035156 C 82.898438 42.746094 78.132812 39.910156 72.917969 38.023438 C 67.679688 36.183594 62.066406 35.390625 56.394531 35.800781 C 54.910156 35.804688 53.578125 36.066406 52.199219 36.230469 C 50.824219 36.351562 49.464844 36.765625 48.09375 37.058594 L 47.074219 37.296875 L 46.078125 37.628906 L 44.097656 38.285156 C 43.425781 38.480469 42.808594 38.8125 42.167969 39.078125 C 41.535156 39.355469 40.902344 39.632812 40.273438 39.914062 C 35.316406 42.378906 30.960938 45.8125 27.351562 49.707031 C 23.734375 53.609375 20.785156 57.902344 18.382812 62.195312 C 15.988281 66.5 14.097656 70.785156 12.570312 74.824219 C 9.542969 82.929688 7.824219 89.988281 6.84375 94.957031 C 6.359375 97.445312 6.007812 99.410156 5.808594 100.753906 C 5.605469 102.101562 5.527344 102.824219 5.527344 102.824219 C 5.527344 102.824219 5.554688 102.097656 5.660156 100.738281 C 5.777344 99.382812 5.941406 97.386719 6.3125 94.871094 C 6.675781 92.347656 7.1875 89.296875 7.9375 85.820312 C 8.683594 82.351562 9.671875 78.453125 11.066406 74.296875 C 12.453125 70.136719 14.210938 65.691406 16.5625 61.214844 C 18.90625 56.738281 21.816406 52.199219 25.546875 48.0625 C 29.269531 43.941406 33.785156 40.152344 39.078125 37.519531 C 39.75 37.21875 40.425781 36.917969 41.101562 36.609375 C 41.78125 36.324219 42.441406 35.972656 43.152344 35.761719 L 45.269531 35.042969 L 46.324219 34.683594 L 47.414062 34.421875 C 48.871094 34.101562 50.296875 33.660156 51.816406 33.511719 C 53.3125 33.320312 54.84375 33.035156 56.273438 33.03125 L 58.445312 32.941406 L 58.992188 32.921875 L 59.324219 32.910156 L 59.605469 32.921875 L 60.726562 32.972656 L 62.964844 33.085938 C 63.714844 33.152344 64.453125 33.277344 65.191406 33.375 C 68.164062 33.734375 71.035156 34.574219 73.820312 35.507812 C 79.367188 37.527344 84.304688 40.660156 88.613281 44.132812 C 92.941406 47.617188 96.59375 51.550781 99.742188 55.488281 C 102.902344 59.421875 105.539062 63.386719 107.792969 67.148438 C 110.054688 70.902344 111.894531 74.46875 113.417969 77.675781 C 114.945312 80.882812 116.164062 83.726562 117.109375 86.09375 C 118.0625 88.449219 118.703125 90.34375 119.144531 91.636719 C 119.582031 92.925781 119.785156 93.621094 119.785156 93.621094 " fill-opacity="1" fill-rule="nonzero"/><path fill="#393536" d="M 118.652344 98.804688 C 118.652344 98.804688 118.476562 98.78125 118.136719 98.738281 C 117.972656 98.714844 117.761719 98.6875 117.507812 98.65625 C 117.261719 98.605469 116.976562 98.550781 116.652344 98.488281 C 116 98.351562 115.210938 98.136719 114.300781 97.816406 C 113.394531 97.484375 112.378906 97.019531 111.296875 96.402344 C 109.136719 95.148438 106.757812 93.207031 104.445312 90.613281 C 102.113281 88.035156 99.875 84.808594 97.667969 81.183594 C 95.445312 77.566406 93.285156 73.519531 90.957031 69.296875 C 88.613281 65.089844 86.160156 60.648438 83.164062 56.429688 C 81.667969 54.320312 80.011719 52.296875 78.164062 50.453125 C 76.308594 48.617188 74.253906 46.964844 71.9375 45.773438 C 70.785156 45.175781 69.578125 44.6875 68.332031 44.324219 C 67.707031 44.132812 67.070312 44.003906 66.429688 43.875 L 65.460938 43.722656 L 64.4375 43.597656 C 61.753906 43.3125 59.007812 43.214844 56.308594 43.433594 C 53.605469 43.65625 50.941406 44.175781 48.394531 45.027344 C 45.851562 45.882812 43.429688 47.070312 41.199219 48.519531 C 36.71875 51.410156 33.066406 55.367188 30.109375 59.585938 C 27.144531 63.816406 24.796875 68.292969 22.835938 72.660156 C 20.886719 77.035156 19.253906 81.28125 17.832031 85.242188 C 16.417969 89.203125 15.125 92.855469 13.945312 96.074219 C 12.753906 99.296875 11.628906 102.085938 10.511719 104.296875 C 9.40625 106.511719 8.226562 108.117188 7.234375 109 C 6.738281 109.449219 6.300781 109.714844 5.996094 109.871094 C 5.84375 109.953125 5.726562 110.003906 5.644531 110.035156 C 5.566406 110.066406 5.527344 110.082031 5.527344 110.082031 C 5.527344 110.082031 5.566406 110.0625 5.640625 110.023438 C 5.71875 109.988281 5.835938 109.929688 5.980469 109.839844 C 6.269531 109.667969 6.679688 109.371094 7.136719 108.902344 C 8.058594 107.972656 9.066406 106.3125 10.050781 104.078125 C 11.039062 101.84375 12.007812 99.023438 13.027344 95.761719 C 14.050781 92.5 15.101562 88.78125 16.398438 84.757812 C 17.691406 80.734375 19.128906 76.367188 21.015625 71.871094 C 22.894531 67.378906 25.144531 62.707031 28.152344 58.238281 C 31.160156 53.792969 34.957031 49.523438 39.75 46.320312 C 42.140625 44.71875 44.773438 43.421875 47.53125 42.476562 C 50.292969 41.539062 53.179688 40.957031 56.082031 40.707031 C 58.992188 40.464844 61.886719 40.527344 64.769531 40.863281 L 65.828125 40.996094 L 66.929688 41.179688 C 67.660156 41.324219 68.386719 41.484375 69.097656 41.707031 C 70.523438 42.125 71.894531 42.691406 73.199219 43.378906 C 75.804688 44.742188 78.058594 46.589844 80.042969 48.582031 C 82.015625 50.589844 83.707031 52.773438 85.222656 54.992188 C 88.257812 59.425781 90.660156 63.972656 92.863281 68.28125 C 95.070312 72.59375 97.097656 76.671875 99.117188 80.34375 C 101.144531 84.003906 103.1875 87.253906 105.289062 89.902344 C 107.382812 92.5625 109.574219 94.574219 111.597656 95.917969 C 112.613281 96.585938 113.578125 97.082031 114.433594 97.488281 C 115.300781 97.867188 116.0625 98.144531 116.691406 98.328125 C 117.003906 98.417969 117.285156 98.496094 117.523438 98.566406 C 117.769531 98.617188 117.976562 98.664062 118.148438 98.695312 C 118.480469 98.769531 118.652344 98.804688 118.652344 98.804688 " fill-opacity="1" fill-rule="nonzero"/><path fill="#393536" d="M 22.921875 142.738281 C 22.921875 142.738281 22.851562 142.546875 22.742188 142.164062 C 22.632812 141.78125 22.519531 141.199219 22.503906 140.425781 C 22.460938 138.878906 22.984375 136.585938 24.378906 134.046875 C 25.742188 131.496094 27.828125 128.664062 30.441406 125.628906 C 33.054688 122.59375 36.164062 119.320312 39.667969 115.875 C 43.179688 112.449219 46.984375 108.742188 51.003906 104.816406 C 55.011719 100.894531 59.175781 96.703125 63.148438 92.109375 C 65.136719 89.820312 67.070312 87.421875 68.832031 84.875 C 70.582031 82.335938 72.175781 79.640625 73.296875 76.777344 C 74.40625 73.929688 75.050781 70.878906 74.621094 67.949219 C 74.222656 65.019531 72.707031 62.324219 70.578125 60.132812 C 69.511719 59.035156 68.316406 58.035156 67.039062 57.136719 L 66.554688 56.804688 L 66.328125 56.644531 L 66.070312 56.480469 C 65.722656 56.253906 65.386719 56.035156 65.0625 55.839844 C 64.40625 55.433594 63.707031 55.058594 63.027344 54.691406 C 60.273438 53.253906 57.320312 52.277344 54.359375 52.191406 C 52.882812 52.152344 51.421875 52.332031 50.015625 52.730469 C 48.613281 53.132812 47.273438 53.75 46.023438 54.523438 C 43.523438 56.082031 41.371094 58.195312 39.515625 60.507812 C 37.65625 62.820312 36.070312 65.328125 34.652344 67.855469 C 33.242188 70.394531 31.976562 72.957031 30.832031 75.496094 C 28.535156 80.574219 26.691406 85.539062 24.992188 90.128906 C 23.3125 94.726562 21.84375 98.976562 20.441406 102.714844 C 19.050781 106.457031 17.777344 109.703125 16.550781 112.304688 C 15.347656 114.914062 14.140625 116.863281 13.089844 118.003906 C 12.558594 118.570312 12.085938 118.933594 11.742188 119.136719 C 11.394531 119.332031 11.199219 119.394531 11.199219 119.394531 C 11.199219 119.394531 11.390625 119.320312 11.71875 119.101562 C 12.042969 118.878906 12.484375 118.488281 12.960938 117.894531 C 13.921875 116.710938 14.949219 114.710938 16.027344 112.074219 C 17.097656 109.433594 18.195312 106.148438 19.386719 102.351562 C 20.5625 98.550781 21.871094 94.25 23.390625 89.578125 C 24.898438 84.898438 26.644531 79.851562 28.832031 74.625 C 29.933594 72.011719 31.136719 69.347656 32.5625 66.714844 C 33.984375 64.074219 35.585938 61.4375 37.53125 58.941406 C 39.472656 56.457031 41.753906 54.0625 44.617188 52.261719 C 46.042969 51.371094 47.609375 50.636719 49.269531 50.148438 C 50.933594 49.664062 52.683594 49.441406 54.429688 49.476562 C 57.929688 49.5625 61.289062 50.683594 64.300781 52.234375 C 65.0625 52.632812 65.785156 53.042969 66.519531 53.5 C 66.894531 53.726562 67.234375 53.949219 67.574219 54.171875 L 68.109375 54.53125 L 68.628906 54.894531 C 70.015625 55.882812 71.339844 56.992188 72.550781 58.246094 C 73.742188 59.507812 74.820312 60.921875 75.640625 62.503906 C 76.476562 64.078125 77.03125 65.816406 77.273438 67.578125 C 77.769531 71.132812 76.992188 74.648438 75.722656 77.746094 C 74.445312 80.863281 72.71875 83.675781 70.859375 86.300781 C 68.992188 88.921875 66.976562 91.355469 64.910156 93.664062 C 60.769531 98.265625 56.46875 102.382812 52.359375 106.234375 C 48.25 110.082031 44.277344 113.613281 40.699219 116.949219 C 37.117188 120.289062 33.847656 123.359375 31.144531 126.261719 C 28.433594 129.148438 26.257812 131.851562 24.8125 134.292969 C 24.089844 135.511719 23.546875 136.65625 23.1875 137.695312 C 22.832031 138.734375 22.671875 139.667969 22.640625 140.425781 C 22.613281 141.183594 22.6875 141.773438 22.777344 142.15625 C 22.863281 142.542969 22.921875 142.738281 22.921875 142.738281 " fill-opacity="1" fill-rule="nonzero"/><path fill="#393536" d="M 19.179688 137.355469 C 19.179688 137.355469 19.113281 137.195312 19.03125 136.871094 C 18.945312 136.550781 18.859375 136.050781 18.875 135.398438 C 18.894531 134.09375 19.414062 132.191406 20.589844 130.0625 C 21.746094 127.917969 23.453125 125.503906 25.574219 122.886719 C 27.703125 120.273438 30.226562 117.425781 33.085938 114.4375 C 35.941406 111.445312 39.074219 108.242188 42.410156 104.898438 C 45.738281 101.542969 49.21875 97.988281 52.703125 94.226562 C 56.164062 90.460938 59.671875 86.46875 62.550781 82.050781 C 63.972656 79.847656 65.253906 77.515625 65.898438 75.101562 C 66.210938 73.902344 66.339844 72.6875 66.167969 71.566406 C 66.003906 70.445312 65.539062 69.421875 64.789062 68.554688 C 64.417969 68.117188 63.96875 67.714844 63.503906 67.359375 C 62.933594 66.925781 62.460938 66.597656 61.902344 66.246094 C 60.820312 65.574219 59.6875 65.003906 58.515625 64.628906 C 56.175781 63.867188 53.695312 63.953125 51.441406 64.898438 C 49.175781 65.8125 47.164062 67.425781 45.394531 69.230469 C 43.613281 71.042969 42.054688 73.078125 40.644531 75.171875 C 37.832031 79.375 35.558594 83.777344 33.507812 88 C 31.480469 92.234375 29.714844 96.332031 28.089844 100.117188 C 26.484375 103.914062 25.027344 107.40625 23.679688 110.480469 C 22.335938 113.554688 21.121094 116.226562 20.011719 118.378906 C 18.921875 120.535156 17.875 122.148438 17.011719 123.121094 C 16.582031 123.613281 16.191406 123.929688 15.90625 124.105469 C 15.617188 124.28125 15.453125 124.335938 15.453125 124.335938 C 15.453125 124.335938 15.613281 124.269531 15.882812 124.074219 C 16.144531 123.878906 16.503906 123.53125 16.886719 123.019531 C 17.664062 122.003906 18.53125 120.324219 19.507812 118.136719 C 20.476562 115.945312 21.519531 113.21875 22.671875 110.078125 C 23.816406 106.929688 25.09375 103.367188 26.554688 99.503906 C 28 95.628906 29.636719 91.457031 31.570312 87.105469 C 33.492188 82.753906 35.707031 78.21875 38.5625 73.796875 C 39.996094 71.589844 41.589844 69.410156 43.492188 67.394531 C 45.40625 65.40625 47.65625 63.546875 50.425781 62.398438 C 51.792969 61.828125 53.300781 61.464844 54.832031 61.402344 C 56.359375 61.335938 57.902344 61.554688 59.34375 62.007812 C 60.789062 62.464844 62.132812 63.121094 63.378906 63.910156 C 63.980469 64.289062 64.636719 64.753906 65.15625 65.160156 C 65.78125 65.636719 66.355469 66.164062 66.878906 66.777344 C 67.925781 67.992188 68.644531 69.574219 68.859375 71.171875 C 69.09375 72.777344 68.886719 74.347656 68.5 75.789062 C 67.707031 78.679688 66.285156 81.175781 64.761719 83.5 C 61.644531 88.117188 58.007812 92.097656 54.433594 95.859375 C 50.84375 99.605469 47.21875 103.046875 43.804688 106.324219 C 40.390625 109.59375 37.113281 112.632812 34.167969 115.507812 C 31.230469 118.390625 28.550781 121.039062 26.320312 123.523438 C 24.082031 125.996094 22.277344 128.28125 21.035156 130.316406 C 19.785156 132.34375 19.113281 134.128906 19.019531 135.40625 C 18.953125 136.042969 19.003906 136.539062 19.066406 136.863281 C 19.125 137.1875 19.179688 137.355469 19.179688 137.355469 " fill-opacity="1" fill-rule="nonzero"/><path fill="#393536" d="M 55.210938 79.21875 C 55.210938 79.21875 55.429688 78.808594 55.734375 78.003906 C 55.878906 77.597656 56.042969 77.09375 56.144531 76.480469 C 56.234375 75.878906 56.285156 75.132812 55.984375 74.414062 C 55.832031 74.0625 55.570312 73.734375 55.203125 73.558594 C 54.832031 73.375 54.378906 73.359375 53.933594 73.464844 C 53.023438 73.671875 52.210938 74.363281 51.519531 75.1875 C 50.832031 76.019531 50.242188 77.050781 50.007812 78.207031 C 49.761719 79.351562 49.960938 80.605469 50.714844 81.601562 C 51.074219 82.09375 51.582031 82.558594 52.09375 82.90625 C 52.636719 83.222656 53.1875 83.28125 53.789062 83.195312 C 54.988281 82.996094 56.175781 82.140625 57.164062 81.128906 C 58.152344 80.09375 58.957031 78.804688 59.453125 77.449219 C 59.949219 76.085938 60.011719 74.628906 59.503906 73.460938 C 59.25 72.875 58.851562 72.347656 58.3125 71.90625 C 58.179688 71.792969 58.042969 71.683594 57.894531 71.582031 L 57.777344 71.507812 L 57.675781 71.441406 L 57.394531 71.261719 C 57.109375 71.09375 56.761719 70.917969 56.425781 70.785156 C 55.082031 70.226562 53.699219 70.261719 52.339844 70.9375 C 50.980469 71.589844 49.726562 72.765625 48.605469 74.066406 C 47.480469 75.382812 46.46875 76.859375 45.523438 78.378906 C 43.628906 81.4375 41.953125 84.683594 40.375 87.917969 C 38.804688 91.160156 37.308594 94.390625 35.828125 97.511719 C 34.347656 100.632812 32.933594 103.660156 31.488281 106.488281 C 30.050781 109.320312 28.632812 111.972656 27.226562 114.367188 C 25.808594 116.757812 24.417969 118.898438 23.082031 120.722656 C 21.738281 122.542969 20.457031 124.042969 19.328125 125.207031 C 18.191406 126.367188 17.210938 127.183594 16.527344 127.710938 C 15.839844 128.238281 15.453125 128.492188 15.453125 128.492188 C 15.453125 128.492188 15.816406 128.203125 16.449219 127.621094 C 17.082031 127.035156 17.972656 126.140625 18.992188 124.90625 C 21.050781 122.453125 23.554688 118.605469 26.046875 113.71875 C 27.304688 111.28125 28.589844 108.59375 29.875 105.71875 C 31.160156 102.835938 32.503906 99.796875 33.855469 96.625 C 35.214844 93.449219 36.625 90.171875 38.160156 86.867188 C 39.699219 83.5625 41.300781 80.210938 43.253906 76.984375 C 44.238281 75.378906 45.296875 73.800781 46.542969 72.316406 C 47.800781 70.855469 49.234375 69.429688 51.140625 68.476562 C 52.089844 68.007812 53.167969 67.6875 54.285156 67.640625 C 55.394531 67.59375 56.507812 67.8125 57.46875 68.222656 C 57.960938 68.425781 58.402344 68.65625 58.871094 68.9375 L 59.152344 69.113281 L 59.320312 69.230469 L 59.476562 69.339844 C 59.691406 69.492188 59.898438 69.660156 60.097656 69.828125 C 60.898438 70.519531 61.570312 71.417969 61.984375 72.421875 C 62.398438 73.429688 62.542969 74.515625 62.449219 75.523438 C 62.367188 76.535156 62.101562 77.480469 61.738281 78.34375 C 61.011719 80.074219 59.882812 81.496094 58.574219 82.625 C 57.265625 83.746094 55.695312 84.625 53.898438 84.691406 C 53.019531 84.726562 52.0625 84.40625 51.445312 83.863281 C 50.804688 83.363281 50.289062 82.828125 49.867188 82.183594 C 49.003906 80.914062 48.851562 79.300781 49.246094 78.023438 C 49.613281 76.722656 50.332031 75.671875 51.125 74.835938 C 51.917969 74.003906 52.855469 73.351562 53.867188 73.148438 C 54.367188 73.050781 54.898438 73.085938 55.320312 73.324219 C 55.75 73.550781 56.035156 73.941406 56.183594 74.332031 C 56.472656 75.132812 56.378906 75.886719 56.265625 76.503906 C 56.132812 77.121094 55.949219 77.625 55.785156 78.027344 C 55.445312 78.820312 55.210938 79.21875 55.210938 79.21875 " fill-opacity="1" fill-rule="nonzero"/><path fill="#393536" d="M 28.933594 149.632812 C 28.300781 147.730469 27.875 145.71875 27.824219 143.679688 C 27.765625 141.644531 28.035156 139.566406 28.683594 137.605469 C 29.332031 135.648438 30.261719 133.773438 31.40625 132.0625 C 32.554688 130.347656 33.867188 128.765625 35.257812 127.269531 C 36.652344 125.769531 38.144531 124.382812 39.660156 123.035156 C 41.179688 121.6875 42.734375 120.390625 44.292969 119.113281 L 49.003906 115.355469 L 51.339844 113.480469 L 53.671875 111.574219 C 55.226562 110.304688 56.789062 109.046875 58.308594 107.757812 L 60.601562 105.835938 L 62.855469 103.871094 C 64.375 102.570312 65.839844 101.222656 67.304688 99.875 C 68.046875 99.207031 68.761719 98.515625 69.480469 97.832031 C 70.195312 97.140625 70.929688 96.46875 71.617188 95.753906 C 72.308594 95.042969 73.019531 94.351562 73.691406 93.628906 C 74.359375 92.898438 75.039062 92.179688 75.691406 91.4375 C 76.980469 89.949219 78.230469 88.433594 79.382812 86.839844 C 80.558594 85.269531 81.625 83.621094 82.679688 81.921875 C 83.742188 80.226562 84.8125 78.484375 86.023438 76.8125 L 87.351562 74.980469 L 88.113281 77.109375 L 89.015625 79.648438 C 89.355469 80.488281 89.675781 81.324219 90.023438 82.152344 C 90.40625 82.96875 90.746094 83.800781 91.15625 84.601562 C 91.5625 85.398438 91.945312 86.214844 92.402344 86.988281 L 93.066406 88.15625 L 93.78125 89.296875 C 94.242188 90.066406 94.773438 90.792969 95.273438 91.539062 C 95.8125 92.25 96.324219 92.992188 96.914062 93.671875 C 97.203125 94.011719 97.484375 94.363281 97.78125 94.703125 L 98.6875 95.695312 C 98.988281 96.03125 99.320312 96.335938 99.632812 96.65625 C 99.945312 96.976562 100.273438 97.285156 100.613281 97.582031 C 101.265625 98.199219 101.960938 98.773438 102.65625 99.339844 L 103.730469 100.160156 L 104.84375 100.933594 C 105.59375 101.429688 106.363281 101.902344 107.152344 102.34375 L 108.351562 102.984375 C 108.757812 103.179688 109.160156 103.382812 109.574219 103.570312 C 110.402344 103.941406 111.242188 104.292969 112.101562 104.582031 C 113.820312 105.179688 115.589844 105.671875 117.417969 105.859375 C 115.578125 105.832031 113.746094 105.515625 111.960938 105.046875 C 111.066406 104.8125 110.1875 104.519531 109.316406 104.210938 C 108.445312 103.890625 107.589844 103.527344 106.746094 103.136719 C 105.910156 102.730469 105.085938 102.296875 104.28125 101.832031 L 103.089844 101.105469 L 101.925781 100.328125 C 101.167969 99.785156 100.410156 99.234375 99.699219 98.632812 C 99.332031 98.34375 98.976562 98.039062 98.636719 97.71875 C 98.292969 97.402344 97.933594 97.105469 97.605469 96.773438 L 96.609375 95.785156 C 96.28125 95.449219 95.976562 95.097656 95.65625 94.753906 C 95.007812 94.078125 94.445312 93.332031 93.835938 92.617188 C 93.285156 91.867188 92.683594 91.144531 92.179688 90.355469 L 91.394531 89.191406 L 90.660156 88 C 90.160156 87.207031 89.730469 86.375 89.277344 85.558594 C 88.820312 84.742188 88.441406 83.890625 88.019531 83.058594 C 87.625 82.210938 87.261719 81.351562 86.882812 80.5 L 85.871094 77.890625 L 87.957031 78.1875 C 86.847656 79.792969 85.847656 81.492188 84.816406 83.222656 C 83.789062 84.957031 82.714844 86.710938 81.519531 88.382812 C 80.34375 90.066406 79.039062 91.648438 77.71875 93.207031 C 77.046875 93.976562 76.351562 94.71875 75.667969 95.476562 C 74.980469 96.230469 74.257812 96.941406 73.554688 97.675781 C 72.855469 98.417969 72.117188 99.105469 71.390625 99.816406 C 70.65625 100.515625 69.945312 101.238281 69.183594 101.902344 C 67.683594 103.261719 66.1875 104.625 64.644531 105.925781 L 62.34375 107.898438 L 60.007812 109.824219 C 58.453125 111.125 56.886719 112.386719 55.300781 113.613281 L 52.929688 115.46875 L 50.523438 117.304688 L 45.722656 120.9375 C 44.125 122.140625 42.546875 123.355469 41.007812 124.613281 C 39.460938 125.867188 37.976562 127.175781 36.550781 128.535156 C 35.128906 129.902344 33.789062 131.347656 32.609375 132.910156 C 31.445312 134.484375 30.425781 136.15625 29.695312 137.96875 C 28.953125 139.777344 28.535156 141.714844 28.417969 143.6875 C 28.3125 145.664062 28.488281 147.664062 28.933594 149.632812 " fill-opacity="1" fill-rule="nonzero"/><path fill="#393536" d="M 113.863281 115.566406 C 113.863281 115.566406 113.21875 115.695312 112.082031 115.863281 C 111.519531 115.980469 110.808594 115.976562 109.988281 115.976562 C 109.574219 115.964844 109.117188 116.015625 108.664062 115.941406 C 108.210938 115.890625 107.730469 115.816406 107.222656 115.746094 C 106.714844 115.703125 106.203125 115.554688 105.671875 115.417969 C 105.140625 115.269531 104.574219 115.15625 104.03125 114.9375 C 103.488281 114.714844 102.925781 114.484375 102.355469 114.25 C 101.78125 114.015625 101.257812 113.664062 100.691406 113.359375 C 100.410156 113.199219 100.121094 113.050781 99.84375 112.878906 C 99.582031 112.683594 99.316406 112.496094 99.046875 112.300781 C 98.523438 111.90625 97.941406 111.554688 97.460938 111.085938 C 96.960938 110.636719 96.457031 110.183594 95.953125 109.726562 C 95.492188 109.226562 95.03125 108.726562 94.574219 108.226562 C 94.101562 107.738281 93.726562 107.175781 93.304688 106.640625 C 92.902344 106.105469 92.488281 105.574219 92.152344 105.003906 C 91.796875 104.441406 91.453125 103.882812 91.117188 103.332031 C 90.800781 102.761719 90.515625 102.191406 90.234375 101.632812 C 89.628906 100.527344 89.226562 99.382812 88.78125 98.328125 C 88.367188 97.261719 88.085938 96.21875 87.785156 95.273438 C 87.511719 94.320312 87.332031 93.425781 87.152344 92.644531 C 86.953125 91.867188 86.894531 91.160156 86.800781 90.59375 C 86.648438 89.449219 86.589844 88.796875 86.589844 88.796875 C 86.589844 88.796875 86.882812 89.394531 87.332031 90.441406 C 87.566406 90.960938 87.816406 91.605469 88.164062 92.316406 C 88.492188 93.027344 88.863281 93.832031 89.273438 94.714844 C 89.722656 95.566406 90.164062 96.507812 90.683594 97.472656 C 91.234375 98.417969 91.730469 99.457031 92.382812 100.449219 C 92.695312 100.953125 93.007812 101.464844 93.328125 101.980469 C 93.675781 102.476562 94.027344 102.976562 94.375 103.492188 C 94.703125 104.011719 95.109375 104.476562 95.488281 104.972656 C 95.875 105.457031 96.230469 105.972656 96.667969 106.414062 C 97.078125 106.875 97.492188 107.339844 97.902344 107.800781 C 98.355469 108.214844 98.789062 108.644531 99.230469 109.070312 C 99.445312 109.285156 99.667969 109.488281 99.910156 109.671875 C 100.140625 109.859375 100.375 110.046875 100.601562 110.238281 C 100.832031 110.425781 101.058594 110.613281 101.289062 110.800781 C 101.523438 110.972656 101.765625 111.128906 102.003906 111.296875 C 102.488281 111.605469 102.9375 111.964844 103.421875 112.234375 C 103.910156 112.503906 104.386719 112.769531 104.847656 113.027344 C 105.3125 113.296875 105.804688 113.449219 106.257812 113.671875 C 106.71875 113.878906 107.160156 114.097656 107.613281 114.214844 C 108.507812 114.488281 109.332031 114.808594 110.082031 114.929688 C 110.832031 115.082031 111.496094 115.285156 112.074219 115.316406 C 113.214844 115.457031 113.863281 115.566406 113.863281 115.566406 " fill-opacity="1" fill-rule="nonzero"/><path fill="#393536" d="M 57.546875 85.703125 C 57.546875 85.703125 57.207031 86.199219 56.53125 86.988281 C 55.859375 87.785156 54.871094 88.898438 53.585938 90.128906 C 52.3125 91.378906 50.765625 92.765625 48.914062 94.089844 C 47.972656 94.742188 46.992188 95.402344 45.746094 95.921875 C 45.425781 96.042969 45.085938 96.164062 44.675781 96.246094 C 44.277344 96.316406 43.742188 96.390625 43.058594 96.136719 C 42.96875 96.097656 42.878906 96.050781 42.792969 96.003906 L 42.664062 95.929688 L 42.601562 95.886719 C 42.53125 95.828125 42.714844 95.992188 42.4375 95.757812 L 42.429688 95.746094 L 42.269531 95.59375 L 42.191406 95.519531 C 42.148438 95.46875 42.089844 95.390625 42.042969 95.324219 C 41.9375 95.191406 41.84375 95.046875 41.761719 94.902344 C 41.625 94.640625 41.570312 94.445312 41.484375 94.214844 C 41.4375 94.007812 41.398438 93.796875 41.363281 93.59375 C 41.214844 92.035156 41.523438 90.816406 41.839844 89.621094 C 42.167969 88.441406 42.59375 87.347656 43.035156 86.304688 C 43.925781 84.234375 44.914062 82.402344 45.84375 80.882812 C 46.753906 79.351562 47.605469 78.136719 48.222656 77.300781 C 48.84375 76.460938 49.234375 76.011719 49.234375 76.011719 C 49.234375 76.011719 49.050781 76.578125 48.710938 77.558594 C 48.371094 78.535156 47.882812 79.921875 47.28125 81.5625 C 46.699219 83.21875 45.992188 85.132812 45.335938 87.167969 C 45.007812 88.1875 44.695312 89.246094 44.441406 90.296875 C 44.207031 91.328125 44.007812 92.449219 44.105469 93.234375 C 44.125 93.316406 44.140625 93.394531 44.148438 93.476562 L 44.195312 93.609375 L 44.144531 93.554688 L 44.113281 93.546875 L 44.347656 93.777344 L 44.359375 93.789062 C 44.089844 93.554688 44.277344 93.71875 44.214844 93.664062 L 44.203125 93.652344 L 44.171875 93.628906 L 44.097656 93.597656 C 43.960938 93.542969 44.03125 93.605469 44.207031 93.566406 C 44.363281 93.546875 44.578125 93.484375 44.796875 93.410156 C 45.699219 93.082031 46.671875 92.554688 47.585938 92.03125 C 48.503906 91.5 49.390625 90.945312 50.226562 90.414062 C 51.070312 89.875 51.863281 89.363281 52.601562 88.894531 C 54.074219 87.933594 55.308594 87.136719 56.167969 86.578125 C 57.046875 86.023438 57.546875 85.703125 57.546875 85.703125 " fill-opacity="1" fill-rule="nonzero"/><path fill="#393536" d="M 40.140625 93.953125 C 39.941406 95.039062 39.679688 96.097656 39.378906 97.140625 C 39.246094 97.667969 39.09375 98.183594 38.945312 98.695312 L 38.519531 100.226562 C 38.398438 100.734375 38.273438 101.238281 38.140625 101.738281 L 37.84375 103.234375 L 37.648438 104.707031 C 37.636719 105.195312 37.625 105.671875 37.605469 106.148438 L 36.328125 104.800781 C 35.9375 104.808594 36.042969 104.855469 36.089844 104.789062 C 36.152344 104.746094 36.265625 104.667969 36.375 104.582031 C 36.601562 104.394531 36.847656 104.164062 37.089844 103.921875 C 37.578125 103.441406 38.078125 102.914062 38.570312 102.378906 C 39.585938 101.3125 40.558594 100.210938 41.753906 99.148438 C 41.90625 99.011719 42.074219 98.878906 42.253906 98.742188 L 42.71875 98.414062 L 43.636719 97.769531 C 43.945312 97.558594 44.25 97.34375 44.527344 97.128906 L 45.394531 96.484375 L 47.203125 95.160156 C 47.835938 94.734375 48.480469 94.328125 49.140625 93.953125 C 48.714844 94.59375 48.261719 95.183594 47.816406 95.789062 C 47.355469 96.386719 46.9375 96.992188 46.441406 97.585938 L 45.691406 98.472656 C 45.441406 98.777344 45.179688 99.050781 44.917969 99.3125 L 44.125 100.097656 L 43.730469 100.480469 L 43.410156 100.832031 C 42.960938 101.339844 42.503906 101.917969 42.035156 102.484375 C 41.578125 103.0625 41.09375 103.625 40.601562 104.203125 C 40.105469 104.773438 39.597656 105.339844 39.023438 105.898438 C 38.738281 106.175781 38.4375 106.453125 38.082031 106.730469 C 37.894531 106.871094 37.714844 107.015625 37.457031 107.15625 C 37.1875 107.277344 36.941406 107.496094 36.175781 107.5 L 34.785156 107.503906 L 34.898438 106.148438 C 34.949219 105.558594 34.992188 104.960938 35.070312 104.375 C 35.195312 103.808594 35.3125 103.234375 35.460938 102.679688 C 35.640625 102.140625 35.816406 101.597656 36.015625 101.070312 C 36.234375 100.554688 36.460938 100.039062 36.695312 99.539062 C 36.945312 99.046875 37.207031 98.558594 37.464844 98.074219 C 37.738281 97.601562 38.015625 97.132812 38.308594 96.667969 C 38.886719 95.753906 39.488281 94.84375 40.140625 93.953125 " fill-opacity="1" fill-rule="nonzero"/><path fill="#393536" d="M 31.832031 152.34375 C 31.832031 152.34375 31.929688 151.910156 32.144531 151.101562 C 32.25 150.695312 32.394531 150.203125 32.570312 149.625 C 32.742188 149.039062 32.941406 148.375 33.214844 147.640625 C 33.71875 146.160156 34.402344 144.386719 35.300781 142.398438 C 35.785156 141.421875 36.253906 140.347656 36.839844 139.269531 C 37.144531 138.734375 37.457031 138.1875 37.78125 137.621094 C 38.117188 137.074219 38.402344 136.46875 38.804688 135.921875 C 39.585938 134.820312 40.355469 133.613281 41.246094 132.460938 C 42.152344 131.308594 43.128906 130.175781 44.15625 129.027344 C 46.214844 126.726562 48.460938 124.386719 50.875 122.066406 C 53.289062 119.742188 55.8125 117.371094 58.472656 115.070312 C 61.117188 112.761719 63.859375 110.464844 66.652344 108.238281 C 69.476562 106.035156 72.339844 103.890625 75.308594 101.925781 C 76.804688 100.945312 78.289062 100.003906 80.023438 99.25 C 80.472656 99.070312 80.921875 98.886719 81.535156 98.773438 C 81.695312 98.75 81.867188 98.730469 82.074219 98.730469 C 82.191406 98.734375 82.300781 98.742188 82.417969 98.757812 C 82.5625 98.785156 82.714844 98.828125 82.855469 98.878906 C 82.878906 98.882812 83.058594 98.972656 82.996094 98.941406 L 83.03125 98.964844 L 83.101562 99 L 83.242188 99.078125 C 83.359375 99.144531 83.523438 99.257812 83.65625 99.355469 C 84.132812 99.730469 84.457031 100.066406 84.761719 100.425781 C 85.070312 100.78125 85.335938 101.132812 85.601562 101.488281 C 87.613281 104.3125 89.125 107.089844 90.851562 109.566406 C 92.550781 112.03125 94.3125 114.25 96.289062 115.84375 C 96.78125 116.242188 97.285156 116.597656 97.800781 116.898438 C 98.292969 117.183594 98.902344 117.476562 99.421875 117.761719 C 100.492188 118.332031 101.511719 118.871094 102.46875 119.378906 C 103.417969 119.914062 104.351562 120.265625 105.183594 120.6875 C 106.027344 121.082031 106.800781 121.449219 107.5 121.777344 C 108.925781 122.394531 110.050781 122.875 110.8125 123.207031 C 111.585938 123.519531 112 123.683594 112 123.683594 C 112 123.683594 111.570312 123.566406 110.765625 123.351562 C 109.972656 123.105469 108.789062 122.773438 107.304688 122.289062 C 105.84375 121.75 104.015625 121.171875 102.007812 120.332031 C 101.011719 119.90625 99.953125 119.445312 98.835938 118.964844 C 98.265625 118.714844 97.734375 118.503906 97.101562 118.1875 C 96.496094 117.882812 95.90625 117.519531 95.332031 117.113281 C 93.035156 115.5 91.035156 113.253906 89.171875 110.773438 C 88.234375 109.535156 87.332031 108.230469 86.421875 106.90625 C 85.503906 105.589844 84.617188 104.210938 83.652344 102.953125 C 83.40625 102.644531 83.160156 102.339844 82.910156 102.066406 C 82.671875 101.792969 82.382812 101.535156 82.191406 101.394531 C 82.148438 101.367188 82.148438 101.351562 82.085938 101.3125 L 81.945312 101.238281 L 81.875 101.203125 L 81.835938 101.1875 C 81.75 101.144531 81.90625 101.21875 81.90625 101.21875 C 82.167969 101.292969 82.046875 101.253906 81.96875 101.28125 C 81.746094 101.328125 81.394531 101.460938 81.054688 101.613281 C 79.660156 102.273438 78.210938 103.210938 76.789062 104.152344 C 73.9375 106.074219 71.128906 108.214844 68.371094 110.40625 C 65.589844 112.582031 62.859375 114.828125 60.214844 117.089844 C 57.578125 119.359375 54.980469 121.59375 52.542969 123.835938 C 50.113281 126.082031 47.777344 128.269531 45.664062 130.429688 C 44.601562 131.507812 43.601562 132.59375 42.667969 133.640625 C 41.730469 134.707031 40.933594 135.800781 40.109375 136.820312 C 39.320312 137.867188 38.675781 138.953125 37.988281 139.933594 C 37.335938 140.945312 36.796875 141.949219 36.242188 142.871094 C 35.21875 144.757812 34.363281 146.433594 33.726562 147.839844 C 33.386719 148.546875 33.121094 149.183594 32.878906 149.738281 C 32.636719 150.289062 32.4375 150.761719 32.289062 151.148438 C 31.976562 151.921875 31.832031 152.34375 31.832031 152.34375 " fill-opacity="1" fill-rule="nonzero"/><path fill="#393536" d="M 109.875 128.492188 C 109.875 128.492188 109.492188 128.378906 108.773438 128.175781 C 108.058594 127.960938 107.003906 127.660156 105.675781 127.226562 C 104.351562 126.789062 102.742188 126.265625 100.917969 125.585938 C 99.089844 124.914062 97.039062 124.128906 94.839844 123.136719 C 93.742188 122.640625 92.605469 122.097656 91.441406 121.476562 C 90.867188 121.144531 90.273438 120.839844 89.695312 120.4375 C 89.40625 120.234375 89.109375 120.058594 88.820312 119.828125 C 88.53125 119.589844 88.242188 119.355469 87.953125 119.113281 C 86.863281 118.101562 85.949219 116.824219 85.234375 115.492188 C 84.871094 114.828125 84.546875 114.144531 84.246094 113.476562 C 83.941406 112.816406 83.644531 112.15625 83.324219 111.664062 C 83.164062 111.417969 83.003906 111.234375 82.875 111.144531 C 82.746094 111.058594 82.691406 111.046875 82.542969 111.039062 C 82.398438 111.035156 82.160156 111.089844 81.902344 111.191406 L 81.800781 111.234375 L 81.75 111.25 C 81.773438 111.238281 81.667969 111.285156 81.796875 111.230469 L 81.761719 111.246094 L 81.511719 111.375 L 81 111.644531 L 79.980469 112.179688 C 79.636719 112.363281 79.339844 112.566406 79.019531 112.757812 C 78.382812 113.144531 77.742188 113.53125 77.101562 113.917969 C 75.804688 114.765625 74.480469 115.597656 73.179688 116.476562 C 71.886719 117.371094 70.566406 118.238281 69.28125 119.15625 C 66.679688 120.949219 64.109375 122.789062 61.621094 124.648438 C 59.171875 126.539062 56.671875 128.359375 54.554688 130.300781 C 53.398438 131.292969 52.515625 132.339844 51.554688 133.324219 C 50.667969 134.398438 49.742188 135.417969 48.980469 136.515625 C 47.367188 138.652344 46.035156 140.828125 44.84375 142.859375 C 44.269531 143.890625 43.714844 144.878906 43.230469 145.839844 C 42.71875 146.789062 42.285156 147.714844 41.867188 148.585938 C 41.054688 150.328125 40.375 151.871094 39.855469 153.15625 C 38.8125 155.726562 38.308594 157.242188 38.308594 157.242188 C 38.308594 157.242188 38.375 156.847656 38.539062 156.117188 C 38.703125 155.390625 38.949219 154.320312 39.335938 152.976562 C 39.71875 151.632812 40.214844 150.003906 40.890625 148.175781 C 41.554688 146.339844 42.386719 144.292969 43.433594 142.121094 C 44.496094 139.957031 45.707031 137.621094 47.285156 135.328125 C 48.027344 134.140625 48.933594 133.023438 49.816406 131.84375 C 50.789062 130.710938 51.804688 129.515625 52.878906 128.527344 L 53.683594 127.742188 L 53.78125 127.644531 L 53.835938 127.59375 L 53.925781 127.515625 L 54.140625 127.328125 L 54.582031 126.957031 C 55.164062 126.457031 55.746094 125.953125 56.339844 125.449219 C 57.515625 124.433594 58.761719 123.5 60.003906 122.519531 C 62.507812 120.609375 65.085938 118.71875 67.703125 116.882812 C 69.011719 115.964844 70.355469 115.097656 71.675781 114.210938 C 73.003906 113.328125 74.367188 112.496094 75.695312 111.648438 C 77.089844 110.839844 78.503906 109.941406 79.878906 109.332031 L 80.394531 109.078125 L 80.652344 108.957031 L 80.683594 108.9375 C 80.832031 108.875 80.75 108.910156 80.796875 108.894531 L 80.878906 108.863281 L 81.050781 108.800781 C 81.5 108.648438 82.015625 108.519531 82.628906 108.539062 C 83.242188 108.554688 83.921875 108.808594 84.382812 109.191406 C 84.851562 109.566406 85.148438 109.984375 85.386719 110.367188 C 85.847656 111.144531 86.121094 111.851562 86.410156 112.53125 C 86.699219 113.203125 86.964844 113.84375 87.253906 114.453125 C 87.84375 115.679688 88.527344 116.746094 89.398438 117.644531 C 89.625 117.851562 89.84375 118.054688 90.066406 118.257812 C 90.296875 118.457031 90.570312 118.640625 90.816406 118.828125 C 91.304688 119.21875 91.863281 119.535156 92.375 119.886719 C 93.433594 120.554688 94.5 121.15625 95.542969 121.71875 C 99.714844 123.929688 103.34375 125.5625 105.875 126.714844 C 107.144531 127.28125 108.144531 127.726562 108.824219 128.03125 C 109.507812 128.332031 109.875 128.492188 109.875 128.492188 " fill-opacity="1" fill-rule="nonzero"/><path fill="#393536" d="M 41.53125 159.136719 C 41.53125 159.136719 41.699219 158.882812 42.019531 158.40625 C 42.347656 157.933594 42.808594 157.226562 43.441406 156.359375 C 44.6875 154.609375 46.503906 152.140625 48.8125 149.269531 C 49.960938 147.832031 51.226562 146.285156 52.609375 144.695312 C 53.992188 143.09375 55.464844 141.421875 57.058594 139.75 C 58.652344 138.078125 60.300781 136.351562 62.09375 134.703125 C 63.878906 133.042969 65.742188 131.402344 67.71875 129.867188 C 69.71875 128.363281 71.816406 126.941406 74.183594 125.871094 C 75.394531 125.378906 76.65625 124.917969 78.121094 124.890625 L 78.1875 124.882812 C 78.222656 124.882812 78.15625 124.882812 78.269531 124.882812 L 78.296875 124.882812 L 78.40625 124.886719 L 78.632812 124.898438 L 79.070312 124.917969 L 79.945312 124.953125 C 80.515625 124.964844 81.15625 125.070312 81.75 125.128906 C 84.144531 125.410156 86.328125 125.917969 88.390625 126.5 C 90.453125 127.050781 92.351562 127.726562 94.085938 128.363281 C 95.820312 129.011719 97.386719 129.660156 98.753906 130.277344 C 100.128906 130.871094 101.300781 131.453125 102.261719 131.925781 C 104.1875 132.886719 105.246094 133.511719 105.246094 133.511719 C 105.246094 133.511719 104.085938 133.121094 102.054688 132.4375 C 101.035156 132.101562 99.800781 131.707031 98.378906 131.269531 C 96.960938 130.824219 95.347656 130.375 93.597656 129.875 C 91.835938 129.414062 89.929688 128.929688 87.902344 128.511719 C 85.886719 128.078125 83.707031 127.746094 81.542969 127.558594 C 80.992188 127.527344 80.488281 127.449219 79.890625 127.460938 L 79.015625 127.457031 L 78.21875 127.457031 C 78.316406 127.457031 78.230469 127.457031 78.25 127.460938 L 78.203125 127.46875 L 77.503906 127.5625 C 77.265625 127.605469 77.015625 127.695312 76.769531 127.757812 C 76.527344 127.8125 76.273438 127.910156 76.023438 128.015625 C 75.773438 128.117188 75.519531 128.195312 75.269531 128.316406 C 73.25 129.257812 71.285156 130.613281 69.402344 132.0625 C 67.496094 133.503906 65.664062 135.070312 63.902344 136.667969 C 62.148438 138.269531 60.414062 139.863281 58.792969 141.457031 C 57.171875 143.058594 55.59375 144.59375 54.125 146.089844 C 52.660156 147.589844 51.277344 149.003906 50 150.316406 C 44.917969 155.609375 41.53125 159.136719 41.53125 159.136719 " fill-opacity="1" fill-rule="nonzero"/><path fill="#393536" d="M 45.457031 161.035156 C 45.457031 161.035156 45.617188 160.8125 45.921875 160.390625 C 46.230469 159.980469 46.667969 159.355469 47.261719 158.59375 C 48.4375 157.0625 50.152344 154.894531 52.328125 152.402344 C 53.414062 151.152344 54.601562 149.808594 55.910156 148.429688 C 57.210938 147.046875 58.589844 145.589844 60.097656 144.160156 C 61.59375 142.722656 63.148438 141.230469 64.824219 139.820312 C 66.503906 138.40625 68.253906 137.015625 70.109375 135.722656 C 71.992188 134.46875 73.9375 133.269531 76.183594 132.472656 C 76.464844 132.378906 76.738281 132.273438 77.03125 132.191406 L 77.933594 131.984375 C 78.222656 131.910156 78.566406 131.914062 78.882812 131.878906 C 79.058594 131.871094 79.15625 131.851562 79.398438 131.851562 L 79.796875 131.867188 C 80.332031 131.894531 80.847656 131.90625 81.382812 131.941406 C 81.933594 132.003906 82.480469 132.058594 83.027344 132.117188 C 85.148438 132.402344 87.132812 132.820312 88.984375 133.332031 C 89.914062 133.566406 90.804688 133.84375 91.664062 134.101562 C 92.519531 134.382812 93.34375 134.652344 94.128906 134.933594 C 95.699219 135.484375 97.113281 136.039062 98.355469 136.570312 C 99.601562 137.082031 100.667969 137.582031 101.542969 137.988281 C 103.292969 138.816406 104.253906 139.359375 104.253906 139.359375 C 104.253906 139.359375 103.199219 139.050781 101.347656 138.503906 C 100.425781 138.246094 99.300781 137.933594 98.011719 137.574219 C 96.726562 137.21875 95.261719 136.855469 93.675781 136.457031 C 92.082031 136.082031 90.355469 135.695312 88.523438 135.347656 C 86.703125 134.984375 84.753906 134.742188 82.785156 134.546875 C 82.300781 134.515625 81.8125 134.484375 81.324219 134.449219 C 80.816406 134.4375 80.277344 134.449219 79.75 134.445312 L 79.351562 134.449219 L 79.074219 134.488281 C 78.859375 134.527344 78.660156 134.515625 78.433594 134.585938 L 77.765625 134.753906 C 77.539062 134.816406 77.3125 134.914062 77.085938 134.988281 C 75.246094 135.664062 73.421875 136.804688 71.675781 138.007812 C 69.902344 139.199219 68.1875 140.523438 66.539062 141.871094 C 64.902344 143.238281 63.273438 144.582031 61.746094 145.945312 C 60.222656 147.304688 58.742188 148.617188 57.359375 149.894531 C 55.980469 151.175781 54.671875 152.382812 53.46875 153.5 C 48.660156 158.023438 45.457031 161.035156 45.457031 161.035156 " fill-opacity="1" fill-rule="nonzero"/><path fill="#393536" d="M 49.140625 162.421875 C 49.140625 162.421875 49.800781 161.765625 51.003906 160.679688 C 52.207031 159.585938 53.941406 158.050781 56.097656 156.300781 C 57.171875 155.417969 58.347656 154.472656 59.617188 153.507812 C 60.871094 152.535156 62.214844 151.519531 63.632812 150.515625 C 65.054688 149.511719 66.507812 148.453125 68.050781 147.46875 C 69.589844 146.472656 71.160156 145.472656 72.785156 144.53125 C 74.425781 143.609375 76.078125 142.722656 77.855469 141.992188 C 78.304688 141.796875 78.742188 141.648438 79.253906 141.480469 C 79.691406 141.359375 80.105469 141.238281 80.582031 141.128906 C 81.511719 140.902344 82.394531 140.734375 83.28125 140.597656 C 85.050781 140.3125 86.761719 140.222656 88.378906 140.171875 C 89.992188 140.113281 91.511719 140.175781 92.914062 140.257812 C 95.710938 140.414062 98.015625 140.757812 99.613281 141.039062 C 101.21875 141.320312 102.121094 141.558594 102.121094 141.558594 C 102.121094 141.558594 101.195312 141.5625 99.574219 141.574219 C 97.957031 141.597656 95.65625 141.652344 92.914062 141.816406 C 91.542969 141.898438 90.066406 142.039062 88.519531 142.203125 C 86.96875 142.375 85.355469 142.644531 83.710938 142.976562 C 82.898438 143.144531 82.058594 143.34375 81.269531 143.585938 C 80.882812 143.691406 80.445312 143.84375 80.023438 143.984375 C 79.683594 144.128906 79.269531 144.273438 78.886719 144.445312 C 77.3125 145.125 75.726562 146.011719 74.164062 146.921875 C 72.589844 147.828125 71.019531 148.765625 69.496094 149.726562 C 67.964844 150.683594 66.460938 151.632812 65.007812 152.546875 C 63.546875 153.472656 62.144531 154.363281 60.808594 155.210938 C 59.476562 156.070312 58.210938 156.863281 57.035156 157.597656 C 54.699219 159.082031 52.726562 160.285156 51.339844 161.121094 C 49.949219 161.960938 49.140625 162.421875 49.140625 162.421875 " fill-opacity="1" fill-rule="nonzero"/><path fill="#393536" d="M 59.488281 164.492188 C 59.488281 164.492188 59.917969 163.972656 60.707031 163.113281 C 61.503906 162.253906 62.652344 161.046875 64.105469 159.675781 C 65.539062 158.285156 67.273438 156.734375 69.207031 155.144531 C 71.140625 153.558594 73.261719 151.941406 75.527344 150.460938 C 76.664062 149.734375 77.828125 149.023438 79.085938 148.425781 C 79.417969 148.285156 79.722656 148.128906 80.078125 148.003906 L 80.335938 147.910156 L 80.398438 147.886719 L 80.503906 147.851562 L 80.621094 147.816406 L 81.082031 147.6875 C 81.667969 147.5 82.382812 147.359375 83.042969 147.226562 C 84.339844 147.027344 85.578125 146.902344 86.753906 146.886719 C 87.925781 146.851562 89.027344 146.917969 90.039062 146.992188 C 91.046875 147.070312 91.964844 147.1875 92.773438 147.320312 C 93.582031 147.4375 94.28125 147.59375 94.855469 147.71875 C 96 147.972656 96.636719 148.191406 96.636719 148.191406 C 96.636719 148.191406 95.972656 148.21875 94.808594 148.261719 C 94.226562 148.296875 93.527344 148.332031 92.71875 148.375 C 91.921875 148.417969 91.019531 148.503906 90.042969 148.574219 C 89.070312 148.671875 88.019531 148.789062 86.929688 148.957031 C 85.832031 149.105469 84.703125 149.351562 83.5625 149.625 C 83.015625 149.796875 82.5 149.90625 81.875 150.148438 L 81.421875 150.308594 L 81.308594 150.347656 L 81.28125 150.355469 L 81.316406 150.347656 L 81.300781 150.351562 L 81.257812 150.371094 L 81.0625 150.460938 C 80.8125 150.558594 80.542969 150.703125 80.277344 150.832031 C 79.210938 151.402344 78.109375 152.078125 77.03125 152.785156 C 74.863281 154.195312 72.710938 155.703125 70.683594 157.101562 C 68.65625 158.507812 66.753906 159.816406 65.097656 160.914062 C 63.449219 162.027344 62.046875 162.917969 61.058594 163.539062 C 60.074219 164.15625 59.488281 164.492188 59.488281 164.492188 " fill-opacity="1" fill-rule="nonzero"/><path fill="#393536" d="M 70.273438 164.492188 C 70.273438 164.492188 70.457031 164.148438 70.820312 163.589844 C 71.179688 163.03125 71.722656 162.253906 72.421875 161.367188 C 73.828125 159.597656 75.863281 157.402344 78.289062 155.53125 C 78.902344 155.070312 79.523438 154.613281 80.238281 154.214844 C 80.597656 154.011719 80.941406 153.824219 81.441406 153.644531 C 81.613281 153.59375 81.78125 153.542969 81.953125 153.492188 C 82.121094 153.4375 82.355469 153.386719 82.554688 153.34375 C 83.355469 153.171875 84.058594 153.128906 84.75 153.125 C 85.433594 153.117188 86.066406 153.179688 86.648438 153.25 C 87.800781 153.417969 88.726562 153.691406 89.363281 153.914062 C 89.996094 154.140625 90.34375 154.324219 90.34375 154.324219 C 90.34375 154.324219 89.964844 154.378906 89.304688 154.476562 C 88.652344 154.574219 87.730469 154.699219 86.664062 154.890625 C 86.132812 154.988281 85.558594 155.085938 84.980469 155.230469 C 84.40625 155.359375 83.777344 155.53125 83.246094 155.730469 C 83.113281 155.789062 83.003906 155.8125 82.839844 155.886719 L 82.351562 156.097656 C 82.195312 156.191406 81.898438 156.34375 81.640625 156.523438 C 81.101562 156.882812 80.527344 157.296875 79.960938 157.730469 C 78.828125 158.59375 77.675781 159.492188 76.574219 160.316406 C 75.472656 161.144531 74.425781 161.898438 73.496094 162.523438 C 72.566406 163.144531 71.769531 163.644531 71.191406 163.980469 C 70.621094 164.316406 70.273438 164.492188 70.273438 164.492188 " fill-opacity="1" fill-rule="nonzero"/><path fill="#393536" d="M 115.277344 109.289062 C 98.800781 133.34375 65.941406 139.484375 41.882812 123.011719 C 17.832031 106.542969 11.679688 73.6875 28.160156 49.632812 C 44.636719 25.582031 77.496094 19.4375 101.550781 35.910156 C 125.609375 52.382812 131.753906 85.238281 115.277344 109.289062 Z M 20.132812 44.132812 C 0.617188 72.621094 7.898438 111.53125 36.386719 131.039062 C 64.878906 150.550781 103.792969 143.273438 123.304688 114.785156 C 142.820312 86.304688 135.542969 47.390625 107.050781 27.882812 C 78.558594 8.371094 39.644531 15.648438 20.132812 44.132812 " fill-opacity="1" fill-rule="nonzero"/><path fill="#393536" d="M 142.042969 113.894531 C 142.042969 113.894531 144.789062 116.6875 139.378906 124.585938 C 133.964844 132.488281 129.242188 132.578125 129.242188 132.578125 L 111.597656 120.496094 L 124.402344 101.808594 L 142.042969 113.894531 " fill-opacity="1" fill-rule="nonzero"/><path fill="#393536" d="M 206.964844 152.296875 C 206.964844 152.296875 213.417969 160.695312 205.875 171.703125 C 198.339844 182.703125 189.132812 178.328125 189.132812 178.328125 L 138.226562 144.125 L 156.058594 118.09375 L 206.964844 152.296875 " fill-opacity="1" fill-rule="nonzero"/><path fill="#393536" d="M 136.78125 116.257812 L 129.550781 126.816406 L 145.601562 137.8125 L 152.839844 127.253906 L 136.78125 116.257812 " fill-opacity="1" fill-rule="nonzero"/></svg>